<?xml version="1.0" encoding="utf-8" standalone="no"?>
<!DOCTYPE svg PUBLIC "-//W3C//DTD SVG 1.1//EN"
  "http://www.w3.org/Graphics/SVG/1.1/DTD/svg11.dtd">
<svg xmlns:xlink="http://www.w3.org/1999/xlink" width="684pt" height="533.288437pt" viewBox="0 0 684 533.288437" xmlns="http://www.w3.org/2000/svg" version="1.1">
 <metadata>
  <rdf:RDF xmlns:dc="http://purl.org/dc/elements/1.1/" xmlns:cc="http://creativecommons.org/ns#" xmlns:rdf="http://www.w3.org/1999/02/22-rdf-syntax-ns#">
   <cc:Work>
    <dc:type rdf:resource="http://purl.org/dc/dcmitype/StillImage"/>
    <dc:date>2026-06-19T00:31:14.643481</dc:date>
    <dc:format>image/svg+xml</dc:format>
    <dc:creator>
     <cc:Agent>
      <dc:title>Matplotlib v3.8.0, https://matplotlib.org/</dc:title>
     </cc:Agent>
    </dc:creator>
   </cc:Work>
  </rdf:RDF>
 </metadata>
 <defs>
  <style type="text/css">*{stroke-linejoin: round; stroke-linecap: butt}</style>
 </defs>
 <g id="figure_1">
  <g id="patch_1">
   <path d="M 0 533.288437 
L 684 533.288437 
L 684 0 
L 0 0 
z
" style="fill: #ffffff"/>
  </g>
  <g id="axes_1">
   <g id="patch_2">
    <path d="M 18.36 125.608792 
L 141.12 125.608792 
Q 149.49 125.608792 149.49 117.781969 
L 149.49 76.03891 
Q 149.49 68.212086 141.12 68.212086 
L 18.36 68.212086 
Q 9.99 68.212086 9.99 76.03891 
L 9.99 117.781969 
Q 9.99 125.608792 18.36 125.608792 
z
" clip-path="url(#pbd6056bc7e)" style="fill: #fadbd8; stroke: #2c3e50; stroke-linejoin: miter"/>
   </g>
   <g id="patch_3">
    <path d="M 213.66 125.608792 
L 336.42 125.608792 
Q 344.79 125.608792 344.79 117.781969 
L 344.79 76.03891 
Q 344.79 68.212086 336.42 68.212086 
L 213.66 68.212086 
Q 205.29 68.212086 205.29 76.03891 
L 205.29 117.781969 
Q 205.29 125.608792 213.66 125.608792 
z
" clip-path="url(#pbd6056bc7e)" style="fill: #fdebd0; stroke: #2c3e50; stroke-linejoin: miter"/>
   </g>
   <g id="patch_4">
    <path d="M 213.66 209.09491 
L 336.42 209.09491 
Q 344.79 209.09491 344.79 201.268086 
L 344.79 159.525028 
Q 344.79 151.698204 336.42 151.698204 
L 213.66 151.698204 
Q 205.29 151.698204 205.29 159.525028 
L 205.29 201.268086 
Q 205.29 209.09491 213.66 209.09491 
z
" clip-path="url(#pbd6056bc7e)" style="fill: #d5f5e3; stroke: #2c3e50; stroke-linejoin: miter"/>
   </g>
   <g id="patch_5">
    <path d="M 18.36 313.452557 
L 141.12 313.452557 
Q 149.49 313.452557 149.49 305.625733 
L 149.49 258.664792 
Q 149.49 250.837969 141.12 250.837969 
L 18.36 250.837969 
Q 9.99 250.837969 9.99 258.664792 
L 9.99 305.625733 
Q 9.99 313.452557 18.36 313.452557 
z
" clip-path="url(#pbd6056bc7e)" style="fill: #d6eaf8; stroke: #2c3e50; stroke-linejoin: miter"/>
   </g>
   <g id="patch_6">
    <path d="M 213.66 313.452557 
L 336.42 313.452557 
Q 344.79 313.452557 344.79 305.625733 
L 344.79 258.664792 
Q 344.79 250.837969 336.42 250.837969 
L 213.66 250.837969 
Q 205.29 250.837969 205.29 258.664792 
L 205.29 305.625733 
Q 205.29 313.452557 213.66 313.452557 
z
" clip-path="url(#pbd6056bc7e)" style="fill: #aed6f1; stroke: #2c3e50; stroke-linejoin: miter"/>
   </g>
   <g id="patch_7">
    <path d="M 408.96 313.452557 
L 531.72 313.452557 
Q 540.09 313.452557 540.09 305.625733 
L 540.09 258.664792 
Q 540.09 250.837969 531.72 250.837969 
L 408.96 250.837969 
Q 400.59 250.837969 400.59 258.664792 
L 400.59 305.625733 
Q 400.59 313.452557 408.96 313.452557 
z
" clip-path="url(#pbd6056bc7e)" style="fill: #85c1e9; stroke: #2c3e50; stroke-linejoin: miter"/>
   </g>
   <g id="patch_8">
    <path d="M 542.88 313.452557 
L 654.48 313.452557 
Q 662.85 313.452557 662.85 305.625733 
L 662.85 258.664792 
Q 662.85 250.837969 654.48 250.837969 
L 542.88 250.837969 
Q 534.51 250.837969 534.51 258.664792 
L 534.51 305.625733 
Q 534.51 313.452557 542.88 313.452557 
z
" clip-path="url(#pbd6056bc7e)" style="fill: #f9e79f; stroke: #2c3e50; stroke-linejoin: miter"/>
   </g>
   <g id="patch_9">
    <path d="M 18.36 402.156557 
L 157.86 402.156557 
Q 166.23 402.156557 166.23 394.329733 
L 166.23 347.368792 
Q 166.23 339.541969 157.86 339.541969 
L 18.36 339.541969 
Q 9.99 339.541969 9.99 347.368792 
L 9.99 394.329733 
Q 9.99 402.156557 18.36 402.156557 
z
" clip-path="url(#pbd6056bc7e)" style="fill: #d2b4de; stroke: #2c3e50; stroke-linejoin: miter"/>
   </g>
   <g id="patch_10">
    <path d="M 224.82 402.156557 
L 364.32 402.156557 
Q 372.69 402.156557 372.69 394.329733 
L 372.69 347.368792 
Q 372.69 339.541969 364.32 339.541969 
L 224.82 339.541969 
Q 216.45 339.541969 216.45 347.368792 
L 216.45 394.329733 
Q 216.45 402.156557 224.82 402.156557 
z
" clip-path="url(#pbd6056bc7e)" style="fill: #f5b7b1; stroke: #2c3e50; stroke-linejoin: miter"/>
   </g>
   <g id="patch_11">
    <path d="M 431.28 402.156557 
L 570.78 402.156557 
Q 579.15 402.156557 579.15 394.329733 
L 579.15 347.368792 
Q 579.15 339.541969 570.78 339.541969 
L 431.28 339.541969 
Q 422.91 339.541969 422.91 347.368792 
L 422.91 394.329733 
Q 422.91 402.156557 431.28 402.156557 
z
" clip-path="url(#pbd6056bc7e)" style="fill: #f8c471; stroke: #2c3e50; stroke-linejoin: miter"/>
   </g>
   <g id="patch_12">
    <path d="M 576.36 402.156557 
L 665.64 402.156557 
Q 674.01 402.156557 674.01 394.329733 
L 674.01 347.368792 
Q 674.01 339.541969 665.64 339.541969 
L 576.36 339.541969 
Q 567.99 339.541969 567.99 347.368792 
L 567.99 394.329733 
Q 567.99 402.156557 576.36 402.156557 
z
" clip-path="url(#pbd6056bc7e)" style="fill: #abebc6; stroke: #2c3e50; stroke-linejoin: miter"/>
   </g>
   <g id="text_1">
    <!-- Synthetic -->
    <g style="fill: #2c3e50" transform="translate(58.494375 94.354861) scale(0.09 -0.09)">
     <defs>
      <path id="DejaVuSans-53" d="M 3425 4513 
L 3425 3897 
Q 3066 4069 2747 4153 
Q 2428 4238 2131 4238 
Q 1616 4238 1336 4038 
Q 1056 3838 1056 3469 
Q 1056 3159 1242 3001 
Q 1428 2844 1947 2747 
L 2328 2669 
Q 3034 2534 3370 2195 
Q 3706 1856 3706 1288 
Q 3706 609 3251 259 
Q 2797 -91 1919 -91 
Q 1588 -91 1214 -16 
Q 841 59 441 206 
L 441 856 
Q 825 641 1194 531 
Q 1563 422 1919 422 
Q 2459 422 2753 634 
Q 3047 847 3047 1241 
Q 3047 1584 2836 1778 
Q 2625 1972 2144 2069 
L 1759 2144 
Q 1053 2284 737 2584 
Q 422 2884 422 3419 
Q 422 4038 858 4394 
Q 1294 4750 2059 4750 
Q 2388 4750 2728 4690 
Q 3069 4631 3425 4513 
z
" transform="scale(0.015625)"/>
      <path id="DejaVuSans-79" d="M 2059 -325 
Q 1816 -950 1584 -1140 
Q 1353 -1331 966 -1331 
L 506 -1331 
L 506 -850 
L 844 -850 
Q 1081 -850 1212 -737 
Q 1344 -625 1503 -206 
L 1606 56 
L 191 3500 
L 800 3500 
L 1894 763 
L 2988 3500 
L 3597 3500 
L 2059 -325 
z
" transform="scale(0.015625)"/>
      <path id="DejaVuSans-6e" d="M 3513 2113 
L 3513 0 
L 2938 0 
L 2938 2094 
Q 2938 2591 2744 2837 
Q 2550 3084 2163 3084 
Q 1697 3084 1428 2787 
Q 1159 2491 1159 1978 
L 1159 0 
L 581 0 
L 581 3500 
L 1159 3500 
L 1159 2956 
Q 1366 3272 1645 3428 
Q 1925 3584 2291 3584 
Q 2894 3584 3203 3211 
Q 3513 2838 3513 2113 
z
" transform="scale(0.015625)"/>
      <path id="DejaVuSans-74" d="M 1172 4494 
L 1172 3500 
L 2356 3500 
L 2356 3053 
L 1172 3053 
L 1172 1153 
Q 1172 725 1289 603 
Q 1406 481 1766 481 
L 2356 481 
L 2356 0 
L 1766 0 
Q 1100 0 847 248 
Q 594 497 594 1153 
L 594 3053 
L 172 3053 
L 172 3500 
L 594 3500 
L 594 4494 
L 1172 4494 
z
" transform="scale(0.015625)"/>
      <path id="DejaVuSans-68" d="M 3513 2113 
L 3513 0 
L 2938 0 
L 2938 2094 
Q 2938 2591 2744 2837 
Q 2550 3084 2163 3084 
Q 1697 3084 1428 2787 
Q 1159 2491 1159 1978 
L 1159 0 
L 581 0 
L 581 4863 
L 1159 4863 
L 1159 2956 
Q 1366 3272 1645 3428 
Q 1925 3584 2291 3584 
Q 2894 3584 3203 3211 
Q 3513 2838 3513 2113 
z
" transform="scale(0.015625)"/>
      <path id="DejaVuSans-65" d="M 3597 1894 
L 3597 1613 
L 953 1613 
Q 991 1019 1311 708 
Q 1631 397 2203 397 
Q 2534 397 2845 478 
Q 3156 559 3463 722 
L 3463 178 
Q 3153 47 2828 -22 
Q 2503 -91 2169 -91 
Q 1331 -91 842 396 
Q 353 884 353 1716 
Q 353 2575 817 3079 
Q 1281 3584 2069 3584 
Q 2775 3584 3186 3129 
Q 3597 2675 3597 1894 
z
M 3022 2063 
Q 3016 2534 2758 2815 
Q 2500 3097 2075 3097 
Q 1594 3097 1305 2825 
Q 1016 2553 972 2059 
L 3022 2063 
z
" transform="scale(0.015625)"/>
      <path id="DejaVuSans-69" d="M 603 3500 
L 1178 3500 
L 1178 0 
L 603 0 
L 603 3500 
z
M 603 4863 
L 1178 4863 
L 1178 4134 
L 603 4134 
L 603 4863 
z
" transform="scale(0.015625)"/>
      <path id="DejaVuSans-63" d="M 3122 3366 
L 3122 2828 
Q 2878 2963 2633 3030 
Q 2388 3097 2138 3097 
Q 1578 3097 1268 2742 
Q 959 2388 959 1747 
Q 959 1106 1268 751 
Q 1578 397 2138 397 
Q 2388 397 2633 464 
Q 2878 531 3122 666 
L 3122 134 
Q 2881 22 2623 -34 
Q 2366 -91 2075 -91 
Q 1284 -91 818 406 
Q 353 903 353 1747 
Q 353 2603 823 3093 
Q 1294 3584 2113 3584 
Q 2378 3584 2631 3529 
Q 2884 3475 3122 3366 
z
" transform="scale(0.015625)"/>
     </defs>
     <use xlink:href="#DejaVuSans-53"/>
     <use xlink:href="#DejaVuSans-79" x="63.476562"/>
     <use xlink:href="#DejaVuSans-6e" x="122.65625"/>
     <use xlink:href="#DejaVuSans-74" x="186.035156"/>
     <use xlink:href="#DejaVuSans-68" x="225.244141"/>
     <use xlink:href="#DejaVuSans-65" x="288.623047"/>
     <use xlink:href="#DejaVuSans-74" x="350.146484"/>
     <use xlink:href="#DejaVuSans-69" x="389.355469"/>
     <use xlink:href="#DejaVuSans-63" x="417.138672"/>
    </g>
    <!-- Data Generators -->
    <g style="fill: #2c3e50" transform="translate(42.369609 104.432892) scale(0.09 -0.09)">
     <defs>
      <path id="DejaVuSans-44" d="M 1259 4147 
L 1259 519 
L 2022 519 
Q 2988 519 3436 956 
Q 3884 1394 3884 2338 
Q 3884 3275 3436 3711 
Q 2988 4147 2022 4147 
L 1259 4147 
z
M 628 4666 
L 1925 4666 
Q 3281 4666 3915 4102 
Q 4550 3538 4550 2338 
Q 4550 1131 3912 565 
Q 3275 0 1925 0 
L 628 0 
L 628 4666 
z
" transform="scale(0.015625)"/>
      <path id="DejaVuSans-61" d="M 2194 1759 
Q 1497 1759 1228 1600 
Q 959 1441 959 1056 
Q 959 750 1161 570 
Q 1363 391 1709 391 
Q 2188 391 2477 730 
Q 2766 1069 2766 1631 
L 2766 1759 
L 2194 1759 
z
M 3341 1997 
L 3341 0 
L 2766 0 
L 2766 531 
Q 2569 213 2275 61 
Q 1981 -91 1556 -91 
Q 1019 -91 701 211 
Q 384 513 384 1019 
Q 384 1609 779 1909 
Q 1175 2209 1959 2209 
L 2766 2209 
L 2766 2266 
Q 2766 2663 2505 2880 
Q 2244 3097 1772 3097 
Q 1472 3097 1187 3025 
Q 903 2953 641 2809 
L 641 3341 
Q 956 3463 1253 3523 
Q 1550 3584 1831 3584 
Q 2591 3584 2966 3190 
Q 3341 2797 3341 1997 
z
" transform="scale(0.015625)"/>
      <path id="DejaVuSans-20" transform="scale(0.015625)"/>
      <path id="DejaVuSans-47" d="M 3809 666 
L 3809 1919 
L 2778 1919 
L 2778 2438 
L 4434 2438 
L 4434 434 
Q 4069 175 3628 42 
Q 3188 -91 2688 -91 
Q 1594 -91 976 548 
Q 359 1188 359 2328 
Q 359 3472 976 4111 
Q 1594 4750 2688 4750 
Q 3144 4750 3555 4637 
Q 3966 4525 4313 4306 
L 4313 3634 
Q 3963 3931 3569 4081 
Q 3175 4231 2741 4231 
Q 1884 4231 1454 3753 
Q 1025 3275 1025 2328 
Q 1025 1384 1454 906 
Q 1884 428 2741 428 
Q 3075 428 3337 486 
Q 3600 544 3809 666 
z
" transform="scale(0.015625)"/>
      <path id="DejaVuSans-72" d="M 2631 2963 
Q 2534 3019 2420 3045 
Q 2306 3072 2169 3072 
Q 1681 3072 1420 2755 
Q 1159 2438 1159 1844 
L 1159 0 
L 581 0 
L 581 3500 
L 1159 3500 
L 1159 2956 
Q 1341 3275 1631 3429 
Q 1922 3584 2338 3584 
Q 2397 3584 2469 3576 
Q 2541 3569 2628 3553 
L 2631 2963 
z
" transform="scale(0.015625)"/>
      <path id="DejaVuSans-6f" d="M 1959 3097 
Q 1497 3097 1228 2736 
Q 959 2375 959 1747 
Q 959 1119 1226 758 
Q 1494 397 1959 397 
Q 2419 397 2687 759 
Q 2956 1122 2956 1747 
Q 2956 2369 2687 2733 
Q 2419 3097 1959 3097 
z
M 1959 3584 
Q 2709 3584 3137 3096 
Q 3566 2609 3566 1747 
Q 3566 888 3137 398 
Q 2709 -91 1959 -91 
Q 1206 -91 779 398 
Q 353 888 353 1747 
Q 353 2609 779 3096 
Q 1206 3584 1959 3584 
z
" transform="scale(0.015625)"/>
      <path id="DejaVuSans-73" d="M 2834 3397 
L 2834 2853 
Q 2591 2978 2328 3040 
Q 2066 3103 1784 3103 
Q 1356 3103 1142 2972 
Q 928 2841 928 2578 
Q 928 2378 1081 2264 
Q 1234 2150 1697 2047 
L 1894 2003 
Q 2506 1872 2764 1633 
Q 3022 1394 3022 966 
Q 3022 478 2636 193 
Q 2250 -91 1575 -91 
Q 1294 -91 989 -36 
Q 684 19 347 128 
L 347 722 
Q 666 556 975 473 
Q 1284 391 1588 391 
Q 1994 391 2212 530 
Q 2431 669 2431 922 
Q 2431 1156 2273 1281 
Q 2116 1406 1581 1522 
L 1381 1569 
Q 847 1681 609 1914 
Q 372 2147 372 2553 
Q 372 3047 722 3315 
Q 1072 3584 1716 3584 
Q 2034 3584 2315 3537 
Q 2597 3491 2834 3397 
z
" transform="scale(0.015625)"/>
     </defs>
     <use xlink:href="#DejaVuSans-44"/>
     <use xlink:href="#DejaVuSans-61" x="77.001953"/>
     <use xlink:href="#DejaVuSans-74" x="138.28125"/>
     <use xlink:href="#DejaVuSans-61" x="177.490234"/>
     <use xlink:href="#DejaVuSans-20" x="238.769531"/>
     <use xlink:href="#DejaVuSans-47" x="270.556641"/>
     <use xlink:href="#DejaVuSans-65" x="348.046875"/>
     <use xlink:href="#DejaVuSans-6e" x="409.570312"/>
     <use xlink:href="#DejaVuSans-65" x="472.949219"/>
     <use xlink:href="#DejaVuSans-72" x="534.472656"/>
     <use xlink:href="#DejaVuSans-61" x="575.585938"/>
     <use xlink:href="#DejaVuSans-74" x="636.865234"/>
     <use xlink:href="#DejaVuSans-6f" x="676.074219"/>
     <use xlink:href="#DejaVuSans-72" x="737.255859"/>
     <use xlink:href="#DejaVuSans-73" x="778.369141"/>
    </g>
   </g>
   <g id="patch_13">
    <path d="M 148.696798 96.910439 
Q 177.389859 96.910439 204.40587 96.910439 
" style="fill: none; stroke: #5d6d7e; stroke-width: 1.5; stroke-linecap: round"/>
    <path d="M 200.80587 95.110439 
L 204.40587 96.910439 
L 200.80587 98.710439 
" style="fill: none; stroke: #5d6d7e; stroke-width: 1.5; stroke-linecap: round"/>
   </g>
   <g id="text_2">
    <!-- Parquet / CSV -->
    <g style="fill: #2c3e50" transform="translate(244.305 94.354861) scale(0.09 -0.09)">
     <defs>
      <path id="DejaVuSans-50" d="M 1259 4147 
L 1259 2394 
L 2053 2394 
Q 2494 2394 2734 2622 
Q 2975 2850 2975 3272 
Q 2975 3691 2734 3919 
Q 2494 4147 2053 4147 
L 1259 4147 
z
M 628 4666 
L 2053 4666 
Q 2838 4666 3239 4311 
Q 3641 3956 3641 3272 
Q 3641 2581 3239 2228 
Q 2838 1875 2053 1875 
L 1259 1875 
L 1259 0 
L 628 0 
L 628 4666 
z
" transform="scale(0.015625)"/>
      <path id="DejaVuSans-71" d="M 947 1747 
Q 947 1113 1208 752 
Q 1469 391 1925 391 
Q 2381 391 2643 752 
Q 2906 1113 2906 1747 
Q 2906 2381 2643 2742 
Q 2381 3103 1925 3103 
Q 1469 3103 1208 2742 
Q 947 2381 947 1747 
z
M 2906 525 
Q 2725 213 2448 61 
Q 2172 -91 1784 -91 
Q 1150 -91 751 415 
Q 353 922 353 1747 
Q 353 2572 751 3078 
Q 1150 3584 1784 3584 
Q 2172 3584 2448 3432 
Q 2725 3281 2906 2969 
L 2906 3500 
L 3481 3500 
L 3481 -1331 
L 2906 -1331 
L 2906 525 
z
" transform="scale(0.015625)"/>
      <path id="DejaVuSans-75" d="M 544 1381 
L 544 3500 
L 1119 3500 
L 1119 1403 
Q 1119 906 1312 657 
Q 1506 409 1894 409 
Q 2359 409 2629 706 
Q 2900 1003 2900 1516 
L 2900 3500 
L 3475 3500 
L 3475 0 
L 2900 0 
L 2900 538 
Q 2691 219 2414 64 
Q 2138 -91 1772 -91 
Q 1169 -91 856 284 
Q 544 659 544 1381 
z
M 1991 3584 
L 1991 3584 
z
" transform="scale(0.015625)"/>
      <path id="DejaVuSans-2f" d="M 1625 4666 
L 2156 4666 
L 531 -594 
L 0 -594 
L 1625 4666 
z
" transform="scale(0.015625)"/>
      <path id="DejaVuSans-43" d="M 4122 4306 
L 4122 3641 
Q 3803 3938 3442 4084 
Q 3081 4231 2675 4231 
Q 1875 4231 1450 3742 
Q 1025 3253 1025 2328 
Q 1025 1406 1450 917 
Q 1875 428 2675 428 
Q 3081 428 3442 575 
Q 3803 722 4122 1019 
L 4122 359 
Q 3791 134 3420 21 
Q 3050 -91 2638 -91 
Q 1578 -91 968 557 
Q 359 1206 359 2328 
Q 359 3453 968 4101 
Q 1578 4750 2638 4750 
Q 3056 4750 3426 4639 
Q 3797 4528 4122 4306 
z
" transform="scale(0.015625)"/>
      <path id="DejaVuSans-56" d="M 1831 0 
L 50 4666 
L 709 4666 
L 2188 738 
L 3669 4666 
L 4325 4666 
L 2547 0 
L 1831 0 
z
" transform="scale(0.015625)"/>
     </defs>
     <use xlink:href="#DejaVuSans-50"/>
     <use xlink:href="#DejaVuSans-61" x="55.802734"/>
     <use xlink:href="#DejaVuSans-72" x="117.082031"/>
     <use xlink:href="#DejaVuSans-71" x="156.445312"/>
     <use xlink:href="#DejaVuSans-75" x="219.921875"/>
     <use xlink:href="#DejaVuSans-65" x="283.300781"/>
     <use xlink:href="#DejaVuSans-74" x="344.824219"/>
     <use xlink:href="#DejaVuSans-20" x="384.033203"/>
     <use xlink:href="#DejaVuSans-2f" x="415.820312"/>
     <use xlink:href="#DejaVuSans-20" x="449.511719"/>
     <use xlink:href="#DejaVuSans-43" x="481.298828"/>
     <use xlink:href="#DejaVuSans-53" x="551.123047"/>
     <use xlink:href="#DejaVuSans-56" x="614.599609"/>
    </g>
    <!-- 7 raw tables -->
    <g style="fill: #2c3e50" transform="translate(247.286953 104.432892) scale(0.09 -0.09)">
     <defs>
      <path id="DejaVuSans-37" d="M 525 4666 
L 3525 4666 
L 3525 4397 
L 1831 0 
L 1172 0 
L 2766 4134 
L 525 4134 
L 525 4666 
z
" transform="scale(0.015625)"/>
      <path id="DejaVuSans-77" d="M 269 3500 
L 844 3500 
L 1563 769 
L 2278 3500 
L 2956 3500 
L 3675 769 
L 4391 3500 
L 4966 3500 
L 4050 0 
L 3372 0 
L 2619 2869 
L 1863 0 
L 1184 0 
L 269 3500 
z
" transform="scale(0.015625)"/>
      <path id="DejaVuSans-62" d="M 3116 1747 
Q 3116 2381 2855 2742 
Q 2594 3103 2138 3103 
Q 1681 3103 1420 2742 
Q 1159 2381 1159 1747 
Q 1159 1113 1420 752 
Q 1681 391 2138 391 
Q 2594 391 2855 752 
Q 3116 1113 3116 1747 
z
M 1159 2969 
Q 1341 3281 1617 3432 
Q 1894 3584 2278 3584 
Q 2916 3584 3314 3078 
Q 3713 2572 3713 1747 
Q 3713 922 3314 415 
Q 2916 -91 2278 -91 
Q 1894 -91 1617 61 
Q 1341 213 1159 525 
L 1159 0 
L 581 0 
L 581 4863 
L 1159 4863 
L 1159 2969 
z
" transform="scale(0.015625)"/>
      <path id="DejaVuSans-6c" d="M 603 4863 
L 1178 4863 
L 1178 0 
L 603 0 
L 603 4863 
z
" transform="scale(0.015625)"/>
     </defs>
     <use xlink:href="#DejaVuSans-37"/>
     <use xlink:href="#DejaVuSans-20" x="63.623047"/>
     <use xlink:href="#DejaVuSans-72" x="95.410156"/>
     <use xlink:href="#DejaVuSans-61" x="136.523438"/>
     <use xlink:href="#DejaVuSans-77" x="197.802734"/>
     <use xlink:href="#DejaVuSans-20" x="279.589844"/>
     <use xlink:href="#DejaVuSans-74" x="311.376953"/>
     <use xlink:href="#DejaVuSans-61" x="350.585938"/>
     <use xlink:href="#DejaVuSans-62" x="411.865234"/>
     <use xlink:href="#DejaVuSans-6c" x="475.341797"/>
     <use xlink:href="#DejaVuSans-65" x="503.125"/>
     <use xlink:href="#DejaVuSans-73" x="564.648438"/>
    </g>
   </g>
   <g id="patch_14">
    <path d="M 275.04 119.781987 
Q 275.04 138.651684 275.04 155.84433 
" style="fill: none; stroke: #5d6d7e; stroke-width: 1.5; stroke-linecap: round"/>
    <path d="M 276.84 152.24433 
L 275.04 155.84433 
L 273.24 152.24433 
" style="fill: none; stroke: #5d6d7e; stroke-width: 1.5; stroke-linecap: round"/>
   </g>
   <g id="text_3">
    <!-- DuckDB -->
    <g style="fill: #2c3e50" transform="translate(255.275156 177.840979) scale(0.09 -0.09)">
     <defs>
      <path id="DejaVuSans-Bold-44" d="M 1791 3756 
L 1791 909 
L 2222 909 
Q 2959 909 3348 1275 
Q 3738 1641 3738 2338 
Q 3738 3031 3350 3393 
Q 2963 3756 2222 3756 
L 1791 3756 
z
M 588 4666 
L 1856 4666 
Q 2919 4666 3439 4514 
Q 3959 4363 4331 4000 
Q 4659 3684 4818 3271 
Q 4978 2859 4978 2338 
Q 4978 1809 4818 1395 
Q 4659 981 4331 666 
Q 3956 303 3431 151 
Q 2906 0 1856 0 
L 588 0 
L 588 4666 
z
" transform="scale(0.015625)"/>
      <path id="DejaVuSans-Bold-75" d="M 500 1363 
L 500 3500 
L 1625 3500 
L 1625 3150 
Q 1625 2866 1622 2436 
Q 1619 2006 1619 1863 
Q 1619 1441 1641 1255 
Q 1663 1069 1716 984 
Q 1784 875 1895 815 
Q 2006 756 2150 756 
Q 2500 756 2700 1025 
Q 2900 1294 2900 1772 
L 2900 3500 
L 4019 3500 
L 4019 0 
L 2900 0 
L 2900 506 
Q 2647 200 2364 54 
Q 2081 -91 1741 -91 
Q 1134 -91 817 281 
Q 500 653 500 1363 
z
" transform="scale(0.015625)"/>
      <path id="DejaVuSans-Bold-63" d="M 3366 3391 
L 3366 2478 
Q 3138 2634 2908 2709 
Q 2678 2784 2431 2784 
Q 1963 2784 1702 2511 
Q 1441 2238 1441 1747 
Q 1441 1256 1702 982 
Q 1963 709 2431 709 
Q 2694 709 2930 787 
Q 3166 866 3366 1019 
L 3366 103 
Q 3103 6 2833 -42 
Q 2563 -91 2291 -91 
Q 1344 -91 809 395 
Q 275 881 275 1747 
Q 275 2613 809 3098 
Q 1344 3584 2291 3584 
Q 2566 3584 2833 3536 
Q 3100 3488 3366 3391 
z
" transform="scale(0.015625)"/>
      <path id="DejaVuSans-Bold-6b" d="M 538 4863 
L 1656 4863 
L 1656 2216 
L 2944 3500 
L 4244 3500 
L 2534 1894 
L 4378 0 
L 3022 0 
L 1656 1459 
L 1656 0 
L 538 0 
L 538 4863 
z
" transform="scale(0.015625)"/>
      <path id="DejaVuSans-Bold-42" d="M 2456 2859 
Q 2741 2859 2887 2984 
Q 3034 3109 3034 3353 
Q 3034 3594 2887 3720 
Q 2741 3847 2456 3847 
L 1791 3847 
L 1791 2859 
L 2456 2859 
z
M 2497 819 
Q 2859 819 3042 972 
Q 3225 1125 3225 1434 
Q 3225 1738 3044 1889 
Q 2863 2041 2497 2041 
L 1791 2041 
L 1791 819 
L 2497 819 
z
M 3616 2497 
Q 4003 2384 4215 2081 
Q 4428 1778 4428 1338 
Q 4428 663 3972 331 
Q 3516 0 2584 0 
L 588 0 
L 588 4666 
L 2394 4666 
Q 3366 4666 3802 4372 
Q 4238 4078 4238 3431 
Q 4238 3091 4078 2852 
Q 3919 2613 3616 2497 
z
" transform="scale(0.015625)"/>
     </defs>
     <use xlink:href="#DejaVuSans-Bold-44"/>
     <use xlink:href="#DejaVuSans-Bold-75" x="83.007812"/>
     <use xlink:href="#DejaVuSans-Bold-63" x="154.199219"/>
     <use xlink:href="#DejaVuSans-Bold-6b" x="213.476562"/>
     <use xlink:href="#DejaVuSans-Bold-44" x="279.980469"/>
     <use xlink:href="#DejaVuSans-Bold-42" x="362.988281"/>
    </g>
    <!-- Warehouse -->
    <g style="fill: #2c3e50" transform="translate(246.702656 187.91901) scale(0.09 -0.09)">
     <defs>
      <path id="DejaVuSans-Bold-57" d="M 191 4666 
L 1344 4666 
L 2150 1275 
L 2950 4666 
L 4109 4666 
L 4909 1275 
L 5716 4666 
L 6859 4666 
L 5759 0 
L 4372 0 
L 3525 3547 
L 2688 0 
L 1300 0 
L 191 4666 
z
" transform="scale(0.015625)"/>
      <path id="DejaVuSans-Bold-61" d="M 2106 1575 
Q 1756 1575 1579 1456 
Q 1403 1338 1403 1106 
Q 1403 894 1545 773 
Q 1688 653 1941 653 
Q 2256 653 2472 879 
Q 2688 1106 2688 1447 
L 2688 1575 
L 2106 1575 
z
M 3816 1997 
L 3816 0 
L 2688 0 
L 2688 519 
Q 2463 200 2181 54 
Q 1900 -91 1497 -91 
Q 953 -91 614 226 
Q 275 544 275 1050 
Q 275 1666 698 1953 
Q 1122 2241 2028 2241 
L 2688 2241 
L 2688 2328 
Q 2688 2594 2478 2717 
Q 2269 2841 1825 2841 
Q 1466 2841 1156 2769 
Q 847 2697 581 2553 
L 581 3406 
Q 941 3494 1303 3539 
Q 1666 3584 2028 3584 
Q 2975 3584 3395 3211 
Q 3816 2838 3816 1997 
z
" transform="scale(0.015625)"/>
      <path id="DejaVuSans-Bold-72" d="M 3138 2547 
Q 2991 2616 2845 2648 
Q 2700 2681 2553 2681 
Q 2122 2681 1889 2404 
Q 1656 2128 1656 1613 
L 1656 0 
L 538 0 
L 538 3500 
L 1656 3500 
L 1656 2925 
Q 1872 3269 2151 3426 
Q 2431 3584 2822 3584 
Q 2878 3584 2943 3579 
Q 3009 3575 3134 3559 
L 3138 2547 
z
" transform="scale(0.015625)"/>
      <path id="DejaVuSans-Bold-65" d="M 4031 1759 
L 4031 1441 
L 1416 1441 
Q 1456 1047 1700 850 
Q 1944 653 2381 653 
Q 2734 653 3104 758 
Q 3475 863 3866 1075 
L 3866 213 
Q 3469 63 3072 -14 
Q 2675 -91 2278 -91 
Q 1328 -91 801 392 
Q 275 875 275 1747 
Q 275 2603 792 3093 
Q 1309 3584 2216 3584 
Q 3041 3584 3536 3087 
Q 4031 2591 4031 1759 
z
M 2881 2131 
Q 2881 2450 2695 2645 
Q 2509 2841 2209 2841 
Q 1884 2841 1681 2658 
Q 1478 2475 1428 2131 
L 2881 2131 
z
" transform="scale(0.015625)"/>
      <path id="DejaVuSans-Bold-68" d="M 4056 2131 
L 4056 0 
L 2931 0 
L 2931 347 
L 2931 1625 
Q 2931 2084 2911 2256 
Q 2891 2428 2841 2509 
Q 2775 2619 2662 2680 
Q 2550 2741 2406 2741 
Q 2056 2741 1856 2470 
Q 1656 2200 1656 1722 
L 1656 0 
L 538 0 
L 538 4863 
L 1656 4863 
L 1656 2988 
Q 1909 3294 2193 3439 
Q 2478 3584 2822 3584 
Q 3428 3584 3742 3212 
Q 4056 2841 4056 2131 
z
" transform="scale(0.015625)"/>
      <path id="DejaVuSans-Bold-6f" d="M 2203 2784 
Q 1831 2784 1636 2517 
Q 1441 2250 1441 1747 
Q 1441 1244 1636 976 
Q 1831 709 2203 709 
Q 2569 709 2762 976 
Q 2956 1244 2956 1747 
Q 2956 2250 2762 2517 
Q 2569 2784 2203 2784 
z
M 2203 3584 
Q 3106 3584 3614 3096 
Q 4122 2609 4122 1747 
Q 4122 884 3614 396 
Q 3106 -91 2203 -91 
Q 1297 -91 786 396 
Q 275 884 275 1747 
Q 275 2609 786 3096 
Q 1297 3584 2203 3584 
z
" transform="scale(0.015625)"/>
      <path id="DejaVuSans-Bold-73" d="M 3272 3391 
L 3272 2541 
Q 2913 2691 2578 2766 
Q 2244 2841 1947 2841 
Q 1628 2841 1473 2761 
Q 1319 2681 1319 2516 
Q 1319 2381 1436 2309 
Q 1553 2238 1856 2203 
L 2053 2175 
Q 2913 2066 3209 1816 
Q 3506 1566 3506 1031 
Q 3506 472 3093 190 
Q 2681 -91 1863 -91 
Q 1516 -91 1145 -36 
Q 775 19 384 128 
L 384 978 
Q 719 816 1070 734 
Q 1422 653 1784 653 
Q 2113 653 2278 743 
Q 2444 834 2444 1013 
Q 2444 1163 2330 1236 
Q 2216 1309 1875 1350 
L 1678 1375 
Q 931 1469 631 1722 
Q 331 1975 331 2491 
Q 331 3047 712 3315 
Q 1094 3584 1881 3584 
Q 2191 3584 2531 3537 
Q 2872 3491 3272 3391 
z
" transform="scale(0.015625)"/>
     </defs>
     <use xlink:href="#DejaVuSans-Bold-57"/>
     <use xlink:href="#DejaVuSans-Bold-61" x="106.677734"/>
     <use xlink:href="#DejaVuSans-Bold-72" x="174.158203"/>
     <use xlink:href="#DejaVuSans-Bold-65" x="223.474609"/>
     <use xlink:href="#DejaVuSans-Bold-68" x="291.296875"/>
     <use xlink:href="#DejaVuSans-Bold-6f" x="362.488281"/>
     <use xlink:href="#DejaVuSans-Bold-75" x="431.189453"/>
     <use xlink:href="#DejaVuSans-Bold-73" x="502.380859"/>
     <use xlink:href="#DejaVuSans-Bold-65" x="561.902344"/>
    </g>
   </g>
   <g id="patch_15">
    <path d="M 275.04 203.268423 
Q 275.04 229.967485 275.04 254.989496 
" style="fill: none; stroke: #5d6d7e; stroke-width: 1.5; stroke-linecap: round"/>
    <path d="M 276.84 251.389496 
L 275.04 254.989496 
L 273.24 251.389496 
" style="fill: none; stroke: #5d6d7e; stroke-width: 1.5; stroke-linecap: round"/>
   </g>
   <g id="text_4">
    <!-- dbt Staging -->
    <g style="fill: #2c3e50" transform="translate(53.637891 279.589685) scale(0.09 -0.09)">
     <defs>
      <path id="DejaVuSans-64" d="M 2906 2969 
L 2906 4863 
L 3481 4863 
L 3481 0 
L 2906 0 
L 2906 525 
Q 2725 213 2448 61 
Q 2172 -91 1784 -91 
Q 1150 -91 751 415 
Q 353 922 353 1747 
Q 353 2572 751 3078 
Q 1150 3584 1784 3584 
Q 2172 3584 2448 3432 
Q 2725 3281 2906 2969 
z
M 947 1747 
Q 947 1113 1208 752 
Q 1469 391 1925 391 
Q 2381 391 2643 752 
Q 2906 1113 2906 1747 
Q 2906 2381 2643 2742 
Q 2381 3103 1925 3103 
Q 1469 3103 1208 2742 
Q 947 2381 947 1747 
z
" transform="scale(0.015625)"/>
      <path id="DejaVuSans-67" d="M 2906 1791 
Q 2906 2416 2648 2759 
Q 2391 3103 1925 3103 
Q 1463 3103 1205 2759 
Q 947 2416 947 1791 
Q 947 1169 1205 825 
Q 1463 481 1925 481 
Q 2391 481 2648 825 
Q 2906 1169 2906 1791 
z
M 3481 434 
Q 3481 -459 3084 -895 
Q 2688 -1331 1869 -1331 
Q 1566 -1331 1297 -1286 
Q 1028 -1241 775 -1147 
L 775 -588 
Q 1028 -725 1275 -790 
Q 1522 -856 1778 -856 
Q 2344 -856 2625 -561 
Q 2906 -266 2906 331 
L 2906 616 
Q 2728 306 2450 153 
Q 2172 0 1784 0 
Q 1141 0 747 490 
Q 353 981 353 1791 
Q 353 2603 747 3093 
Q 1141 3584 1784 3584 
Q 2172 3584 2450 3431 
Q 2728 3278 2906 2969 
L 2906 3500 
L 3481 3500 
L 3481 434 
z
" transform="scale(0.015625)"/>
     </defs>
     <use xlink:href="#DejaVuSans-64"/>
     <use xlink:href="#DejaVuSans-62" x="63.476562"/>
     <use xlink:href="#DejaVuSans-74" x="126.953125"/>
     <use xlink:href="#DejaVuSans-20" x="166.162109"/>
     <use xlink:href="#DejaVuSans-53" x="197.949219"/>
     <use xlink:href="#DejaVuSans-74" x="261.425781"/>
     <use xlink:href="#DejaVuSans-61" x="300.634766"/>
     <use xlink:href="#DejaVuSans-67" x="361.914062"/>
     <use xlink:href="#DejaVuSans-69" x="425.390625"/>
     <use xlink:href="#DejaVuSans-6e" x="453.173828"/>
     <use xlink:href="#DejaVuSans-67" x="516.552734"/>
    </g>
    <!-- 7 models -->
    <g style="fill: #2c3e50" transform="translate(59.089922 289.667716) scale(0.09 -0.09)">
     <defs>
      <path id="DejaVuSans-6d" d="M 3328 2828 
Q 3544 3216 3844 3400 
Q 4144 3584 4550 3584 
Q 5097 3584 5394 3201 
Q 5691 2819 5691 2113 
L 5691 0 
L 5113 0 
L 5113 2094 
Q 5113 2597 4934 2840 
Q 4756 3084 4391 3084 
Q 3944 3084 3684 2787 
Q 3425 2491 3425 1978 
L 3425 0 
L 2847 0 
L 2847 2094 
Q 2847 2600 2669 2842 
Q 2491 3084 2119 3084 
Q 1678 3084 1418 2786 
Q 1159 2488 1159 1978 
L 1159 0 
L 581 0 
L 581 3500 
L 1159 3500 
L 1159 2956 
Q 1356 3278 1631 3431 
Q 1906 3584 2284 3584 
Q 2666 3584 2933 3390 
Q 3200 3197 3328 2828 
z
" transform="scale(0.015625)"/>
     </defs>
     <use xlink:href="#DejaVuSans-37"/>
     <use xlink:href="#DejaVuSans-20" x="63.623047"/>
     <use xlink:href="#DejaVuSans-6d" x="95.410156"/>
     <use xlink:href="#DejaVuSans-6f" x="192.822266"/>
     <use xlink:href="#DejaVuSans-64" x="254.003906"/>
     <use xlink:href="#DejaVuSans-65" x="317.480469"/>
     <use xlink:href="#DejaVuSans-6c" x="379.003906"/>
     <use xlink:href="#DejaVuSans-73" x="406.787109"/>
    </g>
   </g>
   <g id="patch_16">
    <path d="M 148.696798 282.145263 
Q 177.389859 282.145263 204.40587 282.145263 
" style="fill: none; stroke: #5d6d7e; stroke-width: 1.5; stroke-linecap: round"/>
    <path d="M 200.80587 280.345263 
L 204.40587 282.145263 
L 200.80587 283.945263 
" style="fill: none; stroke: #5d6d7e; stroke-width: 1.5; stroke-linecap: round"/>
   </g>
   <g id="text_5">
    <!-- dbt Intermediate -->
    <g style="fill: #2c3e50" transform="translate(237.098672 279.589685) scale(0.09 -0.09)">
     <defs>
      <path id="DejaVuSans-49" d="M 628 4666 
L 1259 4666 
L 1259 0 
L 628 0 
L 628 4666 
z
" transform="scale(0.015625)"/>
     </defs>
     <use xlink:href="#DejaVuSans-64"/>
     <use xlink:href="#DejaVuSans-62" x="63.476562"/>
     <use xlink:href="#DejaVuSans-74" x="126.953125"/>
     <use xlink:href="#DejaVuSans-20" x="166.162109"/>
     <use xlink:href="#DejaVuSans-49" x="197.949219"/>
     <use xlink:href="#DejaVuSans-6e" x="227.441406"/>
     <use xlink:href="#DejaVuSans-74" x="290.820312"/>
     <use xlink:href="#DejaVuSans-65" x="330.029297"/>
     <use xlink:href="#DejaVuSans-72" x="391.552734"/>
     <use xlink:href="#DejaVuSans-6d" x="430.916016"/>
     <use xlink:href="#DejaVuSans-65" x="528.328125"/>
     <use xlink:href="#DejaVuSans-64" x="589.851562"/>
     <use xlink:href="#DejaVuSans-69" x="653.328125"/>
     <use xlink:href="#DejaVuSans-61" x="681.111328"/>
     <use xlink:href="#DejaVuSans-74" x="742.390625"/>
     <use xlink:href="#DejaVuSans-65" x="781.599609"/>
    </g>
    <!-- 13 models -->
    <g style="fill: #2c3e50" transform="translate(251.526797 289.667716) scale(0.09 -0.09)">
     <defs>
      <path id="DejaVuSans-31" d="M 794 531 
L 1825 531 
L 1825 4091 
L 703 3866 
L 703 4441 
L 1819 4666 
L 2450 4666 
L 2450 531 
L 3481 531 
L 3481 0 
L 794 0 
L 794 531 
z
" transform="scale(0.015625)"/>
      <path id="DejaVuSans-33" d="M 2597 2516 
Q 3050 2419 3304 2112 
Q 3559 1806 3559 1356 
Q 3559 666 3084 287 
Q 2609 -91 1734 -91 
Q 1441 -91 1130 -33 
Q 819 25 488 141 
L 488 750 
Q 750 597 1062 519 
Q 1375 441 1716 441 
Q 2309 441 2620 675 
Q 2931 909 2931 1356 
Q 2931 1769 2642 2001 
Q 2353 2234 1838 2234 
L 1294 2234 
L 1294 2753 
L 1863 2753 
Q 2328 2753 2575 2939 
Q 2822 3125 2822 3475 
Q 2822 3834 2567 4026 
Q 2313 4219 1838 4219 
Q 1578 4219 1281 4162 
Q 984 4106 628 3988 
L 628 4550 
Q 988 4650 1302 4700 
Q 1616 4750 1894 4750 
Q 2613 4750 3031 4423 
Q 3450 4097 3450 3541 
Q 3450 3153 3228 2886 
Q 3006 2619 2597 2516 
z
" transform="scale(0.015625)"/>
     </defs>
     <use xlink:href="#DejaVuSans-31"/>
     <use xlink:href="#DejaVuSans-33" x="63.623047"/>
     <use xlink:href="#DejaVuSans-20" x="127.246094"/>
     <use xlink:href="#DejaVuSans-6d" x="159.033203"/>
     <use xlink:href="#DejaVuSans-6f" x="256.445312"/>
     <use xlink:href="#DejaVuSans-64" x="317.626953"/>
     <use xlink:href="#DejaVuSans-65" x="381.103516"/>
     <use xlink:href="#DejaVuSans-6c" x="442.626953"/>
     <use xlink:href="#DejaVuSans-73" x="470.410156"/>
    </g>
   </g>
   <g id="patch_17">
    <path d="M 343.996798 282.145263 
Q 372.689859 282.145263 399.70587 282.145263 
" style="fill: none; stroke: #5d6d7e; stroke-width: 1.5; stroke-linecap: round"/>
    <path d="M 396.10587 280.345263 
L 399.70587 282.145263 
L 396.10587 283.945263 
" style="fill: none; stroke: #5d6d7e; stroke-width: 1.5; stroke-linecap: round"/>
   </g>
   <g id="text_6">
    <!-- dbt Marts -->
    <g style="fill: #2c3e50" transform="translate(448.833516 279.589685) scale(0.09 -0.09)">
     <defs>
      <path id="DejaVuSans-4d" d="M 628 4666 
L 1569 4666 
L 2759 1491 
L 3956 4666 
L 4897 4666 
L 4897 0 
L 4281 0 
L 4281 4097 
L 3078 897 
L 2444 897 
L 1241 4097 
L 1241 0 
L 628 0 
L 628 4666 
z
" transform="scale(0.015625)"/>
     </defs>
     <use xlink:href="#DejaVuSans-64"/>
     <use xlink:href="#DejaVuSans-62" x="63.476562"/>
     <use xlink:href="#DejaVuSans-74" x="126.953125"/>
     <use xlink:href="#DejaVuSans-20" x="166.162109"/>
     <use xlink:href="#DejaVuSans-4d" x="197.949219"/>
     <use xlink:href="#DejaVuSans-61" x="284.228516"/>
     <use xlink:href="#DejaVuSans-72" x="345.507812"/>
     <use xlink:href="#DejaVuSans-74" x="386.621094"/>
     <use xlink:href="#DejaVuSans-73" x="425.830078"/>
    </g>
    <!-- 21 models -->
    <g style="fill: #2c3e50" transform="translate(446.826797 289.667716) scale(0.09 -0.09)">
     <defs>
      <path id="DejaVuSans-32" d="M 1228 531 
L 3431 531 
L 3431 0 
L 469 0 
L 469 531 
Q 828 903 1448 1529 
Q 2069 2156 2228 2338 
Q 2531 2678 2651 2914 
Q 2772 3150 2772 3378 
Q 2772 3750 2511 3984 
Q 2250 4219 1831 4219 
Q 1534 4219 1204 4116 
Q 875 4013 500 3803 
L 500 4441 
Q 881 4594 1212 4672 
Q 1544 4750 1819 4750 
Q 2544 4750 2975 4387 
Q 3406 4025 3406 3419 
Q 3406 3131 3298 2873 
Q 3191 2616 2906 2266 
Q 2828 2175 2409 1742 
Q 1991 1309 1228 531 
z
" transform="scale(0.015625)"/>
     </defs>
     <use xlink:href="#DejaVuSans-32"/>
     <use xlink:href="#DejaVuSans-31" x="63.623047"/>
     <use xlink:href="#DejaVuSans-20" x="127.246094"/>
     <use xlink:href="#DejaVuSans-6d" x="159.033203"/>
     <use xlink:href="#DejaVuSans-6f" x="256.445312"/>
     <use xlink:href="#DejaVuSans-64" x="317.626953"/>
     <use xlink:href="#DejaVuSans-65" x="381.103516"/>
     <use xlink:href="#DejaVuSans-6c" x="442.626953"/>
     <use xlink:href="#DejaVuSans-73" x="470.410156"/>
    </g>
   </g>
   <g id="text_7">
    <!-- dbt Tests -->
    <g style="fill: #2c3e50" transform="translate(578.567109 279.589685) scale(0.09 -0.09)">
     <defs>
      <path id="DejaVuSans-54" d="M -19 4666 
L 3928 4666 
L 3928 4134 
L 2272 4134 
L 2272 0 
L 1638 0 
L 1638 4134 
L -19 4134 
L -19 4666 
z
" transform="scale(0.015625)"/>
     </defs>
     <use xlink:href="#DejaVuSans-64"/>
     <use xlink:href="#DejaVuSans-62" x="63.476562"/>
     <use xlink:href="#DejaVuSans-74" x="126.953125"/>
     <use xlink:href="#DejaVuSans-20" x="166.162109"/>
     <use xlink:href="#DejaVuSans-54" x="197.949219"/>
     <use xlink:href="#DejaVuSans-65" x="242.033203"/>
     <use xlink:href="#DejaVuSans-73" x="303.556641"/>
     <use xlink:href="#DejaVuSans-74" x="355.65625"/>
     <use xlink:href="#DejaVuSans-73" x="394.865234"/>
    </g>
    <!-- 44 total -->
    <g style="fill: #2c3e50" transform="translate(581.234062 289.667716) scale(0.09 -0.09)">
     <defs>
      <path id="DejaVuSans-34" d="M 2419 4116 
L 825 1625 
L 2419 1625 
L 2419 4116 
z
M 2253 4666 
L 3047 4666 
L 3047 1625 
L 3713 1625 
L 3713 1100 
L 3047 1100 
L 3047 0 
L 2419 0 
L 2419 1100 
L 313 1100 
L 313 1709 
L 2253 4666 
z
" transform="scale(0.015625)"/>
     </defs>
     <use xlink:href="#DejaVuSans-34"/>
     <use xlink:href="#DejaVuSans-34" x="63.623047"/>
     <use xlink:href="#DejaVuSans-20" x="127.246094"/>
     <use xlink:href="#DejaVuSans-74" x="159.033203"/>
     <use xlink:href="#DejaVuSans-6f" x="198.242188"/>
     <use xlink:href="#DejaVuSans-74" x="259.423828"/>
     <use xlink:href="#DejaVuSans-61" x="298.632812"/>
     <use xlink:href="#DejaVuSans-6c" x="359.912109"/>
    </g>
   </g>
   <g id="patch_18">
    <path d="M 470.34 307.625752 
Q 470.34 326.495449 470.34 343.688094 
" style="fill: none; stroke: #5d6d7e; stroke-width: 1.5; stroke-linecap: round"/>
    <path d="M 472.14 340.088094 
L 470.34 343.688094 
L 468.54 340.088094 
" style="fill: none; stroke: #5d6d7e; stroke-width: 1.5; stroke-linecap: round"/>
   </g>
   <g id="text_8">
    <!-- Streamlit Dashboard -->
    <g style="fill: #2c3e50" transform="translate(41.721328 368.293685) scale(0.09 -0.09)">
     <use xlink:href="#DejaVuSans-53"/>
     <use xlink:href="#DejaVuSans-74" x="63.476562"/>
     <use xlink:href="#DejaVuSans-72" x="102.685547"/>
     <use xlink:href="#DejaVuSans-65" x="141.548828"/>
     <use xlink:href="#DejaVuSans-61" x="203.072266"/>
     <use xlink:href="#DejaVuSans-6d" x="264.351562"/>
     <use xlink:href="#DejaVuSans-6c" x="361.763672"/>
     <use xlink:href="#DejaVuSans-69" x="389.546875"/>
     <use xlink:href="#DejaVuSans-74" x="417.330078"/>
     <use xlink:href="#DejaVuSans-20" x="456.539062"/>
     <use xlink:href="#DejaVuSans-44" x="488.326172"/>
     <use xlink:href="#DejaVuSans-61" x="565.328125"/>
     <use xlink:href="#DejaVuSans-73" x="626.607422"/>
     <use xlink:href="#DejaVuSans-68" x="678.707031"/>
     <use xlink:href="#DejaVuSans-62" x="742.085938"/>
     <use xlink:href="#DejaVuSans-6f" x="805.5625"/>
     <use xlink:href="#DejaVuSans-61" x="866.744141"/>
     <use xlink:href="#DejaVuSans-72" x="928.023438"/>
     <use xlink:href="#DejaVuSans-64" x="967.386719"/>
    </g>
    <!-- 8 pages -->
    <g style="fill: #2c3e50" transform="translate(70.232344 378.371716) scale(0.09 -0.09)">
     <defs>
      <path id="DejaVuSans-38" d="M 2034 2216 
Q 1584 2216 1326 1975 
Q 1069 1734 1069 1313 
Q 1069 891 1326 650 
Q 1584 409 2034 409 
Q 2484 409 2743 651 
Q 3003 894 3003 1313 
Q 3003 1734 2745 1975 
Q 2488 2216 2034 2216 
z
M 1403 2484 
Q 997 2584 770 2862 
Q 544 3141 544 3541 
Q 544 4100 942 4425 
Q 1341 4750 2034 4750 
Q 2731 4750 3128 4425 
Q 3525 4100 3525 3541 
Q 3525 3141 3298 2862 
Q 3072 2584 2669 2484 
Q 3125 2378 3379 2068 
Q 3634 1759 3634 1313 
Q 3634 634 3220 271 
Q 2806 -91 2034 -91 
Q 1263 -91 848 271 
Q 434 634 434 1313 
Q 434 1759 690 2068 
Q 947 2378 1403 2484 
z
M 1172 3481 
Q 1172 3119 1398 2916 
Q 1625 2713 2034 2713 
Q 2441 2713 2670 2916 
Q 2900 3119 2900 3481 
Q 2900 3844 2670 4047 
Q 2441 4250 2034 4250 
Q 1625 4250 1398 4047 
Q 1172 3844 1172 3481 
z
" transform="scale(0.015625)"/>
      <path id="DejaVuSans-70" d="M 1159 525 
L 1159 -1331 
L 581 -1331 
L 581 3500 
L 1159 3500 
L 1159 2969 
Q 1341 3281 1617 3432 
Q 1894 3584 2278 3584 
Q 2916 3584 3314 3078 
Q 3713 2572 3713 1747 
Q 3713 922 3314 415 
Q 2916 -91 2278 -91 
Q 1894 -91 1617 61 
Q 1341 213 1159 525 
z
M 3116 1747 
Q 3116 2381 2855 2742 
Q 2594 3103 2138 3103 
Q 1681 3103 1420 2742 
Q 1159 2381 1159 1747 
Q 1159 1113 1420 752 
Q 1681 391 2138 391 
Q 2594 391 2855 752 
Q 3116 1113 3116 1747 
z
" transform="scale(0.015625)"/>
     </defs>
     <use xlink:href="#DejaVuSans-38"/>
     <use xlink:href="#DejaVuSans-20" x="63.623047"/>
     <use xlink:href="#DejaVuSans-70" x="95.410156"/>
     <use xlink:href="#DejaVuSans-61" x="158.886719"/>
     <use xlink:href="#DejaVuSans-67" x="220.166016"/>
     <use xlink:href="#DejaVuSans-65" x="283.642578"/>
     <use xlink:href="#DejaVuSans-73" x="345.166016"/>
    </g>
   </g>
   <g id="patch_19">
    <path d="M 165.439182 370.849263 
Q 191.339692 370.849263 215.563151 370.849263 
" style="fill: none; stroke: #5d6d7e; stroke-width: 1.5; stroke-linecap: round"/>
    <path d="M 211.963151 369.049263 
L 215.563151 370.849263 
L 211.963151 372.649263 
" style="fill: none; stroke: #5d6d7e; stroke-width: 1.5; stroke-linecap: round"/>
   </g>
   <g id="text_9">
    <!-- A/B Experiment -->
    <g style="fill: #2c3e50" transform="translate(259.457344 368.293685) scale(0.09 -0.09)">
     <defs>
      <path id="DejaVuSans-41" d="M 2188 4044 
L 1331 1722 
L 3047 1722 
L 2188 4044 
z
M 1831 4666 
L 2547 4666 
L 4325 0 
L 3669 0 
L 3244 1197 
L 1141 1197 
L 716 0 
L 50 0 
L 1831 4666 
z
" transform="scale(0.015625)"/>
      <path id="DejaVuSans-42" d="M 1259 2228 
L 1259 519 
L 2272 519 
Q 2781 519 3026 730 
Q 3272 941 3272 1375 
Q 3272 1813 3026 2020 
Q 2781 2228 2272 2228 
L 1259 2228 
z
M 1259 4147 
L 1259 2741 
L 2194 2741 
Q 2656 2741 2882 2914 
Q 3109 3088 3109 3444 
Q 3109 3797 2882 3972 
Q 2656 4147 2194 4147 
L 1259 4147 
z
M 628 4666 
L 2241 4666 
Q 2963 4666 3353 4366 
Q 3744 4066 3744 3513 
Q 3744 3084 3544 2831 
Q 3344 2578 2956 2516 
Q 3422 2416 3680 2098 
Q 3938 1781 3938 1306 
Q 3938 681 3513 340 
Q 3088 0 2303 0 
L 628 0 
L 628 4666 
z
" transform="scale(0.015625)"/>
      <path id="DejaVuSans-45" d="M 628 4666 
L 3578 4666 
L 3578 4134 
L 1259 4134 
L 1259 2753 
L 3481 2753 
L 3481 2222 
L 1259 2222 
L 1259 531 
L 3634 531 
L 3634 0 
L 628 0 
L 628 4666 
z
" transform="scale(0.015625)"/>
      <path id="DejaVuSans-78" d="M 3513 3500 
L 2247 1797 
L 3578 0 
L 2900 0 
L 1881 1375 
L 863 0 
L 184 0 
L 1544 1831 
L 300 3500 
L 978 3500 
L 1906 2253 
L 2834 3500 
L 3513 3500 
z
" transform="scale(0.015625)"/>
     </defs>
     <use xlink:href="#DejaVuSans-41"/>
     <use xlink:href="#DejaVuSans-2f" x="68.408203"/>
     <use xlink:href="#DejaVuSans-42" x="102.099609"/>
     <use xlink:href="#DejaVuSans-20" x="170.703125"/>
     <use xlink:href="#DejaVuSans-45" x="202.490234"/>
     <use xlink:href="#DejaVuSans-78" x="265.673828"/>
     <use xlink:href="#DejaVuSans-70" x="324.853516"/>
     <use xlink:href="#DejaVuSans-65" x="388.330078"/>
     <use xlink:href="#DejaVuSans-72" x="449.853516"/>
     <use xlink:href="#DejaVuSans-69" x="490.966797"/>
     <use xlink:href="#DejaVuSans-6d" x="518.75"/>
     <use xlink:href="#DejaVuSans-65" x="616.162109"/>
     <use xlink:href="#DejaVuSans-6e" x="677.685547"/>
     <use xlink:href="#DejaVuSans-74" x="741.064453"/>
    </g>
    <!-- Analysis -->
    <g style="fill: #2c3e50" transform="translate(276.03 378.371716) scale(0.09 -0.09)">
     <use xlink:href="#DejaVuSans-41"/>
     <use xlink:href="#DejaVuSans-6e" x="68.408203"/>
     <use xlink:href="#DejaVuSans-61" x="131.787109"/>
     <use xlink:href="#DejaVuSans-6c" x="193.066406"/>
     <use xlink:href="#DejaVuSans-79" x="220.849609"/>
     <use xlink:href="#DejaVuSans-73" x="280.029297"/>
     <use xlink:href="#DejaVuSans-69" x="332.128906"/>
     <use xlink:href="#DejaVuSans-73" x="359.912109"/>
    </g>
   </g>
   <g id="patch_20">
    <path d="M 371.899182 370.849263 
Q 397.799692 370.849263 422.023151 370.849263 
" style="fill: none; stroke: #5d6d7e; stroke-width: 1.5; stroke-linecap: round"/>
    <path d="M 418.423151 369.049263 
L 422.023151 370.849263 
L 418.423151 372.649263 
" style="fill: none; stroke: #5d6d7e; stroke-width: 1.5; stroke-linecap: round"/>
   </g>
   <g id="text_10">
    <!-- Root Cause -->
    <g style="fill: #2c3e50" transform="translate(475.539609 368.293685) scale(0.09 -0.09)">
     <defs>
      <path id="DejaVuSans-52" d="M 2841 2188 
Q 3044 2119 3236 1894 
Q 3428 1669 3622 1275 
L 4263 0 
L 3584 0 
L 2988 1197 
Q 2756 1666 2539 1819 
Q 2322 1972 1947 1972 
L 1259 1972 
L 1259 0 
L 628 0 
L 628 4666 
L 2053 4666 
Q 2853 4666 3247 4331 
Q 3641 3997 3641 3322 
Q 3641 2881 3436 2590 
Q 3231 2300 2841 2188 
z
M 1259 4147 
L 1259 2491 
L 2053 2491 
Q 2509 2491 2742 2702 
Q 2975 2913 2975 3322 
Q 2975 3731 2742 3939 
Q 2509 4147 2053 4147 
L 1259 4147 
z
" transform="scale(0.015625)"/>
     </defs>
     <use xlink:href="#DejaVuSans-52"/>
     <use xlink:href="#DejaVuSans-6f" x="64.982422"/>
     <use xlink:href="#DejaVuSans-6f" x="126.164062"/>
     <use xlink:href="#DejaVuSans-74" x="187.345703"/>
     <use xlink:href="#DejaVuSans-20" x="226.554688"/>
     <use xlink:href="#DejaVuSans-43" x="258.341797"/>
     <use xlink:href="#DejaVuSans-61" x="328.166016"/>
     <use xlink:href="#DejaVuSans-75" x="389.445312"/>
     <use xlink:href="#DejaVuSans-73" x="452.824219"/>
     <use xlink:href="#DejaVuSans-65" x="504.923828"/>
    </g>
    <!-- Decomposition -->
    <g style="fill: #2c3e50" transform="translate(467.360859 378.371716) scale(0.09 -0.09)">
     <use xlink:href="#DejaVuSans-44"/>
     <use xlink:href="#DejaVuSans-65" x="77.001953"/>
     <use xlink:href="#DejaVuSans-63" x="138.525391"/>
     <use xlink:href="#DejaVuSans-6f" x="193.505859"/>
     <use xlink:href="#DejaVuSans-6d" x="254.6875"/>
     <use xlink:href="#DejaVuSans-70" x="352.099609"/>
     <use xlink:href="#DejaVuSans-6f" x="415.576172"/>
     <use xlink:href="#DejaVuSans-73" x="476.757812"/>
     <use xlink:href="#DejaVuSans-69" x="528.857422"/>
     <use xlink:href="#DejaVuSans-74" x="556.640625"/>
     <use xlink:href="#DejaVuSans-69" x="595.849609"/>
     <use xlink:href="#DejaVuSans-6f" x="623.632812"/>
     <use xlink:href="#DejaVuSans-6e" x="684.814453"/>
    </g>
   </g>
   <g id="text_11">
    <!-- SQL Queries -->
    <g style="fill: #2c3e50" transform="translate(593.287031 368.293685) scale(0.09 -0.09)">
     <defs>
      <path id="DejaVuSans-51" d="M 2522 4238 
Q 1834 4238 1429 3725 
Q 1025 3213 1025 2328 
Q 1025 1447 1429 934 
Q 1834 422 2522 422 
Q 3209 422 3611 934 
Q 4013 1447 4013 2328 
Q 4013 3213 3611 3725 
Q 3209 4238 2522 4238 
z
M 3406 84 
L 4238 -825 
L 3475 -825 
L 2784 -78 
Q 2681 -84 2626 -87 
Q 2572 -91 2522 -91 
Q 1538 -91 948 567 
Q 359 1225 359 2328 
Q 359 3434 948 4092 
Q 1538 4750 2522 4750 
Q 3503 4750 4090 4092 
Q 4678 3434 4678 2328 
Q 4678 1516 4351 937 
Q 4025 359 3406 84 
z
" transform="scale(0.015625)"/>
      <path id="DejaVuSans-4c" d="M 628 4666 
L 1259 4666 
L 1259 531 
L 3531 531 
L 3531 0 
L 628 0 
L 628 4666 
z
" transform="scale(0.015625)"/>
     </defs>
     <use xlink:href="#DejaVuSans-53"/>
     <use xlink:href="#DejaVuSans-51" x="63.476562"/>
     <use xlink:href="#DejaVuSans-4c" x="142.1875"/>
     <use xlink:href="#DejaVuSans-20" x="197.900391"/>
     <use xlink:href="#DejaVuSans-51" x="229.6875"/>
     <use xlink:href="#DejaVuSans-75" x="308.398438"/>
     <use xlink:href="#DejaVuSans-65" x="371.777344"/>
     <use xlink:href="#DejaVuSans-72" x="433.300781"/>
     <use xlink:href="#DejaVuSans-69" x="474.414062"/>
     <use xlink:href="#DejaVuSans-65" x="502.197266"/>
     <use xlink:href="#DejaVuSans-73" x="563.720703"/>
    </g>
    <!-- 20 -->
    <g style="fill: #2c3e50" transform="translate(615.27375 378.371716) scale(0.09 -0.09)">
     <defs>
      <path id="DejaVuSans-30" d="M 2034 4250 
Q 1547 4250 1301 3770 
Q 1056 3291 1056 2328 
Q 1056 1369 1301 889 
Q 1547 409 2034 409 
Q 2525 409 2770 889 
Q 3016 1369 3016 2328 
Q 3016 3291 2770 3770 
Q 2525 4250 2034 4250 
z
M 2034 4750 
Q 2819 4750 3233 4129 
Q 3647 3509 3647 2328 
Q 3647 1150 3233 529 
Q 2819 -91 2034 -91 
Q 1250 -91 836 529 
Q 422 1150 422 2328 
Q 422 3509 836 4129 
Q 1250 4750 2034 4750 
z
" transform="scale(0.015625)"/>
     </defs>
     <use xlink:href="#DejaVuSans-32"/>
     <use xlink:href="#DejaVuSans-30" x="63.623047"/>
    </g>
   </g>
   <g id="text_12">
    <!-- FxFill Analytics — End-to-End Architecture -->
    <g transform="translate(187.055234 17.077969) scale(0.13 -0.13)">
     <defs>
      <path id="DejaVuSans-Bold-46" d="M 588 4666 
L 3834 4666 
L 3834 3756 
L 1791 3756 
L 1791 2888 
L 3713 2888 
L 3713 1978 
L 1791 1978 
L 1791 0 
L 588 0 
L 588 4666 
z
" transform="scale(0.015625)"/>
      <path id="DejaVuSans-Bold-78" d="M 1422 1791 
L 159 3500 
L 1344 3500 
L 2059 2463 
L 2784 3500 
L 3969 3500 
L 2706 1797 
L 4031 0 
L 2847 0 
L 2059 1106 
L 1281 0 
L 97 0 
L 1422 1791 
z
" transform="scale(0.015625)"/>
      <path id="DejaVuSans-Bold-69" d="M 538 3500 
L 1656 3500 
L 1656 0 
L 538 0 
L 538 3500 
z
M 538 4863 
L 1656 4863 
L 1656 3950 
L 538 3950 
L 538 4863 
z
" transform="scale(0.015625)"/>
      <path id="DejaVuSans-Bold-6c" d="M 538 4863 
L 1656 4863 
L 1656 0 
L 538 0 
L 538 4863 
z
" transform="scale(0.015625)"/>
      <path id="DejaVuSans-Bold-20" transform="scale(0.015625)"/>
      <path id="DejaVuSans-Bold-41" d="M 3419 850 
L 1538 850 
L 1241 0 
L 31 0 
L 1759 4666 
L 3194 4666 
L 4922 0 
L 3713 0 
L 3419 850 
z
M 1838 1716 
L 3116 1716 
L 2478 3572 
L 1838 1716 
z
" transform="scale(0.015625)"/>
      <path id="DejaVuSans-Bold-6e" d="M 4056 2131 
L 4056 0 
L 2931 0 
L 2931 347 
L 2931 1631 
Q 2931 2084 2911 2256 
Q 2891 2428 2841 2509 
Q 2775 2619 2662 2680 
Q 2550 2741 2406 2741 
Q 2056 2741 1856 2470 
Q 1656 2200 1656 1722 
L 1656 0 
L 538 0 
L 538 3500 
L 1656 3500 
L 1656 2988 
Q 1909 3294 2193 3439 
Q 2478 3584 2822 3584 
Q 3428 3584 3742 3212 
Q 4056 2841 4056 2131 
z
" transform="scale(0.015625)"/>
      <path id="DejaVuSans-Bold-79" d="M 78 3500 
L 1197 3500 
L 2138 1125 
L 2938 3500 
L 4056 3500 
L 2584 -331 
Q 2363 -916 2067 -1148 
Q 1772 -1381 1288 -1381 
L 641 -1381 
L 641 -647 
L 991 -647 
Q 1275 -647 1404 -556 
Q 1534 -466 1606 -231 
L 1638 -134 
L 78 3500 
z
" transform="scale(0.015625)"/>
      <path id="DejaVuSans-Bold-74" d="M 1759 4494 
L 1759 3500 
L 2913 3500 
L 2913 2700 
L 1759 2700 
L 1759 1216 
Q 1759 972 1856 886 
Q 1953 800 2241 800 
L 2816 800 
L 2816 0 
L 1856 0 
Q 1194 0 917 276 
Q 641 553 641 1216 
L 641 2700 
L 84 2700 
L 84 3500 
L 641 3500 
L 641 4494 
L 1759 4494 
z
" transform="scale(0.015625)"/>
      <path id="DejaVuSans-Bold-2014" d="M 344 2156 
L 6056 2156 
L 6056 1350 
L 344 1350 
L 344 2156 
z
" transform="scale(0.015625)"/>
      <path id="DejaVuSans-Bold-45" d="M 588 4666 
L 3834 4666 
L 3834 3756 
L 1791 3756 
L 1791 2888 
L 3713 2888 
L 3713 1978 
L 1791 1978 
L 1791 909 
L 3903 909 
L 3903 0 
L 588 0 
L 588 4666 
z
" transform="scale(0.015625)"/>
      <path id="DejaVuSans-Bold-64" d="M 2919 2988 
L 2919 4863 
L 4044 4863 
L 4044 0 
L 2919 0 
L 2919 506 
Q 2688 197 2409 53 
Q 2131 -91 1766 -91 
Q 1119 -91 703 423 
Q 288 938 288 1747 
Q 288 2556 703 3070 
Q 1119 3584 1766 3584 
Q 2128 3584 2408 3439 
Q 2688 3294 2919 2988 
z
M 2181 722 
Q 2541 722 2730 984 
Q 2919 1247 2919 1747 
Q 2919 2247 2730 2509 
Q 2541 2772 2181 2772 
Q 1825 2772 1636 2509 
Q 1447 2247 1447 1747 
Q 1447 1247 1636 984 
Q 1825 722 2181 722 
z
" transform="scale(0.015625)"/>
      <path id="DejaVuSans-Bold-2d" d="M 347 2297 
L 2309 2297 
L 2309 1388 
L 347 1388 
L 347 2297 
z
" transform="scale(0.015625)"/>
     </defs>
     <use xlink:href="#DejaVuSans-Bold-46"/>
     <use xlink:href="#DejaVuSans-Bold-78" x="68.310547"/>
     <use xlink:href="#DejaVuSans-Bold-46" x="132.8125"/>
     <use xlink:href="#DejaVuSans-Bold-69" x="201.123047"/>
     <use xlink:href="#DejaVuSans-Bold-6c" x="235.400391"/>
     <use xlink:href="#DejaVuSans-Bold-6c" x="269.677734"/>
     <use xlink:href="#DejaVuSans-Bold-20" x="303.955078"/>
     <use xlink:href="#DejaVuSans-Bold-41" x="338.769531"/>
     <use xlink:href="#DejaVuSans-Bold-6e" x="416.162109"/>
     <use xlink:href="#DejaVuSans-Bold-61" x="487.353516"/>
     <use xlink:href="#DejaVuSans-Bold-6c" x="554.833984"/>
     <use xlink:href="#DejaVuSans-Bold-79" x="589.111328"/>
     <use xlink:href="#DejaVuSans-Bold-74" x="654.296875"/>
     <use xlink:href="#DejaVuSans-Bold-69" x="702.099609"/>
     <use xlink:href="#DejaVuSans-Bold-63" x="736.376953"/>
     <use xlink:href="#DejaVuSans-Bold-73" x="795.654297"/>
     <use xlink:href="#DejaVuSans-Bold-20" x="855.175781"/>
     <use xlink:href="#DejaVuSans-Bold-2014" x="889.990234"/>
     <use xlink:href="#DejaVuSans-Bold-20" x="989.990234"/>
     <use xlink:href="#DejaVuSans-Bold-45" x="1024.804688"/>
     <use xlink:href="#DejaVuSans-Bold-6e" x="1093.115234"/>
     <use xlink:href="#DejaVuSans-Bold-64" x="1164.306641"/>
     <use xlink:href="#DejaVuSans-Bold-2d" x="1235.888672"/>
     <use xlink:href="#DejaVuSans-Bold-74" x="1277.392578"/>
     <use xlink:href="#DejaVuSans-Bold-6f" x="1325.195312"/>
     <use xlink:href="#DejaVuSans-Bold-2d" x="1393.896484"/>
     <use xlink:href="#DejaVuSans-Bold-45" x="1435.400391"/>
     <use xlink:href="#DejaVuSans-Bold-6e" x="1503.710938"/>
     <use xlink:href="#DejaVuSans-Bold-64" x="1574.902344"/>
     <use xlink:href="#DejaVuSans-Bold-20" x="1646.484375"/>
     <use xlink:href="#DejaVuSans-Bold-41" x="1681.298828"/>
     <use xlink:href="#DejaVuSans-Bold-72" x="1758.691406"/>
     <use xlink:href="#DejaVuSans-Bold-63" x="1808.007812"/>
     <use xlink:href="#DejaVuSans-Bold-68" x="1867.285156"/>
     <use xlink:href="#DejaVuSans-Bold-69" x="1938.476562"/>
     <use xlink:href="#DejaVuSans-Bold-74" x="1972.753906"/>
     <use xlink:href="#DejaVuSans-Bold-65" x="2020.556641"/>
     <use xlink:href="#DejaVuSans-Bold-63" x="2088.378906"/>
     <use xlink:href="#DejaVuSans-Bold-74" x="2147.65625"/>
     <use xlink:href="#DejaVuSans-Bold-75" x="2195.458984"/>
     <use xlink:href="#DejaVuSans-Bold-72" x="2266.650391"/>
     <use xlink:href="#DejaVuSans-Bold-65" x="2315.966797"/>
    </g>
   </g>
  </g>
  <g id="text_13">
   <!-- All data synthetic  |  41 dbt models (7 staging + 13 intermediate + 21 marts)  |  44 dbt tests  |  CPU-only, self-contained -->
   <g style="fill: #7f8c8d" transform="translate(120.480859 524.437969) scale(0.07 -0.07)">
    <defs>
     <path id="DejaVuSans-7c" d="M 1344 4891 
L 1344 -1509 
L 813 -1509 
L 813 4891 
L 1344 4891 
z
" transform="scale(0.015625)"/>
     <path id="DejaVuSans-28" d="M 1984 4856 
Q 1566 4138 1362 3434 
Q 1159 2731 1159 2009 
Q 1159 1288 1364 580 
Q 1569 -128 1984 -844 
L 1484 -844 
Q 1016 -109 783 600 
Q 550 1309 550 2009 
Q 550 2706 781 3412 
Q 1013 4119 1484 4856 
L 1984 4856 
z
" transform="scale(0.015625)"/>
     <path id="DejaVuSans-2b" d="M 2944 4013 
L 2944 2272 
L 4684 2272 
L 4684 1741 
L 2944 1741 
L 2944 0 
L 2419 0 
L 2419 1741 
L 678 1741 
L 678 2272 
L 2419 2272 
L 2419 4013 
L 2944 4013 
z
" transform="scale(0.015625)"/>
     <path id="DejaVuSans-29" d="M 513 4856 
L 1013 4856 
Q 1481 4119 1714 3412 
Q 1947 2706 1947 2009 
Q 1947 1309 1714 600 
Q 1481 -109 1013 -844 
L 513 -844 
Q 928 -128 1133 580 
Q 1338 1288 1338 2009 
Q 1338 2731 1133 3434 
Q 928 4138 513 4856 
z
" transform="scale(0.015625)"/>
     <path id="DejaVuSans-55" d="M 556 4666 
L 1191 4666 
L 1191 1831 
Q 1191 1081 1462 751 
Q 1734 422 2344 422 
Q 2950 422 3222 751 
Q 3494 1081 3494 1831 
L 3494 4666 
L 4128 4666 
L 4128 1753 
Q 4128 841 3676 375 
Q 3225 -91 2344 -91 
Q 1459 -91 1007 375 
Q 556 841 556 1753 
L 556 4666 
z
" transform="scale(0.015625)"/>
     <path id="DejaVuSans-2d" d="M 313 2009 
L 1997 2009 
L 1997 1497 
L 313 1497 
L 313 2009 
z
" transform="scale(0.015625)"/>
     <path id="DejaVuSans-2c" d="M 750 794 
L 1409 794 
L 1409 256 
L 897 -744 
L 494 -744 
L 750 256 
L 750 794 
z
" transform="scale(0.015625)"/>
     <path id="DejaVuSans-66" d="M 2375 4863 
L 2375 4384 
L 1825 4384 
Q 1516 4384 1395 4259 
Q 1275 4134 1275 3809 
L 1275 3500 
L 2222 3500 
L 2222 3053 
L 1275 3053 
L 1275 0 
L 697 0 
L 697 3053 
L 147 3053 
L 147 3500 
L 697 3500 
L 697 3744 
Q 697 4328 969 4595 
Q 1241 4863 1831 4863 
L 2375 4863 
z
" transform="scale(0.015625)"/>
    </defs>
    <use xlink:href="#DejaVuSans-41"/>
    <use xlink:href="#DejaVuSans-6c" x="68.408203"/>
    <use xlink:href="#DejaVuSans-6c" x="96.191406"/>
    <use xlink:href="#DejaVuSans-20" x="123.974609"/>
    <use xlink:href="#DejaVuSans-64" x="155.761719"/>
    <use xlink:href="#DejaVuSans-61" x="219.238281"/>
    <use xlink:href="#DejaVuSans-74" x="280.517578"/>
    <use xlink:href="#DejaVuSans-61" x="319.726562"/>
    <use xlink:href="#DejaVuSans-20" x="381.005859"/>
    <use xlink:href="#DejaVuSans-73" x="412.792969"/>
    <use xlink:href="#DejaVuSans-79" x="464.892578"/>
    <use xlink:href="#DejaVuSans-6e" x="524.072266"/>
    <use xlink:href="#DejaVuSans-74" x="587.451172"/>
    <use xlink:href="#DejaVuSans-68" x="626.660156"/>
    <use xlink:href="#DejaVuSans-65" x="690.039062"/>
    <use xlink:href="#DejaVuSans-74" x="751.5625"/>
    <use xlink:href="#DejaVuSans-69" x="790.771484"/>
    <use xlink:href="#DejaVuSans-63" x="818.554688"/>
    <use xlink:href="#DejaVuSans-20" x="873.535156"/>
    <use xlink:href="#DejaVuSans-20" x="905.322266"/>
    <use xlink:href="#DejaVuSans-7c" x="937.109375"/>
    <use xlink:href="#DejaVuSans-20" x="970.800781"/>
    <use xlink:href="#DejaVuSans-20" x="1002.587891"/>
    <use xlink:href="#DejaVuSans-34" x="1034.375"/>
    <use xlink:href="#DejaVuSans-31" x="1097.998047"/>
    <use xlink:href="#DejaVuSans-20" x="1161.621094"/>
    <use xlink:href="#DejaVuSans-64" x="1193.408203"/>
    <use xlink:href="#DejaVuSans-62" x="1256.884766"/>
    <use xlink:href="#DejaVuSans-74" x="1320.361328"/>
    <use xlink:href="#DejaVuSans-20" x="1359.570312"/>
    <use xlink:href="#DejaVuSans-6d" x="1391.357422"/>
    <use xlink:href="#DejaVuSans-6f" x="1488.769531"/>
    <use xlink:href="#DejaVuSans-64" x="1549.951172"/>
    <use xlink:href="#DejaVuSans-65" x="1613.427734"/>
    <use xlink:href="#DejaVuSans-6c" x="1674.951172"/>
    <use xlink:href="#DejaVuSans-73" x="1702.734375"/>
    <use xlink:href="#DejaVuSans-20" x="1754.833984"/>
    <use xlink:href="#DejaVuSans-28" x="1786.621094"/>
    <use xlink:href="#DejaVuSans-37" x="1825.634766"/>
    <use xlink:href="#DejaVuSans-20" x="1889.257812"/>
    <use xlink:href="#DejaVuSans-73" x="1921.044922"/>
    <use xlink:href="#DejaVuSans-74" x="1973.144531"/>
    <use xlink:href="#DejaVuSans-61" x="2012.353516"/>
    <use xlink:href="#DejaVuSans-67" x="2073.632812"/>
    <use xlink:href="#DejaVuSans-69" x="2137.109375"/>
    <use xlink:href="#DejaVuSans-6e" x="2164.892578"/>
    <use xlink:href="#DejaVuSans-67" x="2228.271484"/>
    <use xlink:href="#DejaVuSans-20" x="2291.748047"/>
    <use xlink:href="#DejaVuSans-2b" x="2323.535156"/>
    <use xlink:href="#DejaVuSans-20" x="2407.324219"/>
    <use xlink:href="#DejaVuSans-31" x="2439.111328"/>
    <use xlink:href="#DejaVuSans-33" x="2502.734375"/>
    <use xlink:href="#DejaVuSans-20" x="2566.357422"/>
    <use xlink:href="#DejaVuSans-69" x="2598.144531"/>
    <use xlink:href="#DejaVuSans-6e" x="2625.927734"/>
    <use xlink:href="#DejaVuSans-74" x="2689.306641"/>
    <use xlink:href="#DejaVuSans-65" x="2728.515625"/>
    <use xlink:href="#DejaVuSans-72" x="2790.039062"/>
    <use xlink:href="#DejaVuSans-6d" x="2829.402344"/>
    <use xlink:href="#DejaVuSans-65" x="2926.814453"/>
    <use xlink:href="#DejaVuSans-64" x="2988.337891"/>
    <use xlink:href="#DejaVuSans-69" x="3051.814453"/>
    <use xlink:href="#DejaVuSans-61" x="3079.597656"/>
    <use xlink:href="#DejaVuSans-74" x="3140.876953"/>
    <use xlink:href="#DejaVuSans-65" x="3180.085938"/>
    <use xlink:href="#DejaVuSans-20" x="3241.609375"/>
    <use xlink:href="#DejaVuSans-2b" x="3273.396484"/>
    <use xlink:href="#DejaVuSans-20" x="3357.185547"/>
    <use xlink:href="#DejaVuSans-32" x="3388.972656"/>
    <use xlink:href="#DejaVuSans-31" x="3452.595703"/>
    <use xlink:href="#DejaVuSans-20" x="3516.21875"/>
    <use xlink:href="#DejaVuSans-6d" x="3548.005859"/>
    <use xlink:href="#DejaVuSans-61" x="3645.417969"/>
    <use xlink:href="#DejaVuSans-72" x="3706.697266"/>
    <use xlink:href="#DejaVuSans-74" x="3747.810547"/>
    <use xlink:href="#DejaVuSans-73" x="3787.019531"/>
    <use xlink:href="#DejaVuSans-29" x="3839.119141"/>
    <use xlink:href="#DejaVuSans-20" x="3878.132812"/>
    <use xlink:href="#DejaVuSans-20" x="3909.919922"/>
    <use xlink:href="#DejaVuSans-7c" x="3941.707031"/>
    <use xlink:href="#DejaVuSans-20" x="3975.398438"/>
    <use xlink:href="#DejaVuSans-20" x="4007.185547"/>
    <use xlink:href="#DejaVuSans-34" x="4038.972656"/>
    <use xlink:href="#DejaVuSans-34" x="4102.595703"/>
    <use xlink:href="#DejaVuSans-20" x="4166.21875"/>
    <use xlink:href="#DejaVuSans-64" x="4198.005859"/>
    <use xlink:href="#DejaVuSans-62" x="4261.482422"/>
    <use xlink:href="#DejaVuSans-74" x="4324.958984"/>
    <use xlink:href="#DejaVuSans-20" x="4364.167969"/>
    <use xlink:href="#DejaVuSans-74" x="4395.955078"/>
    <use xlink:href="#DejaVuSans-65" x="4435.164062"/>
    <use xlink:href="#DejaVuSans-73" x="4496.6875"/>
    <use xlink:href="#DejaVuSans-74" x="4548.787109"/>
    <use xlink:href="#DejaVuSans-73" x="4587.996094"/>
    <use xlink:href="#DejaVuSans-20" x="4640.095703"/>
    <use xlink:href="#DejaVuSans-20" x="4671.882812"/>
    <use xlink:href="#DejaVuSans-7c" x="4703.669922"/>
    <use xlink:href="#DejaVuSans-20" x="4737.361328"/>
    <use xlink:href="#DejaVuSans-20" x="4769.148438"/>
    <use xlink:href="#DejaVuSans-43" x="4800.935547"/>
    <use xlink:href="#DejaVuSans-50" x="4870.759766"/>
    <use xlink:href="#DejaVuSans-55" x="4931.0625"/>
    <use xlink:href="#DejaVuSans-2d" x="5004.255859"/>
    <use xlink:href="#DejaVuSans-6f" x="5042.214844"/>
    <use xlink:href="#DejaVuSans-6e" x="5103.396484"/>
    <use xlink:href="#DejaVuSans-6c" x="5166.775391"/>
    <use xlink:href="#DejaVuSans-79" x="5194.558594"/>
    <use xlink:href="#DejaVuSans-2c" x="5253.738281"/>
    <use xlink:href="#DejaVuSans-20" x="5285.525391"/>
    <use xlink:href="#DejaVuSans-73" x="5317.3125"/>
    <use xlink:href="#DejaVuSans-65" x="5369.412109"/>
    <use xlink:href="#DejaVuSans-6c" x="5430.935547"/>
    <use xlink:href="#DejaVuSans-66" x="5458.71875"/>
    <use xlink:href="#DejaVuSans-2d" x="5488.423828"/>
    <use xlink:href="#DejaVuSans-63" x="5524.507812"/>
    <use xlink:href="#DejaVuSans-6f" x="5579.488281"/>
    <use xlink:href="#DejaVuSans-6e" x="5640.669922"/>
    <use xlink:href="#DejaVuSans-74" x="5704.048828"/>
    <use xlink:href="#DejaVuSans-61" x="5743.257812"/>
    <use xlink:href="#DejaVuSans-69" x="5804.537109"/>
    <use xlink:href="#DejaVuSans-6e" x="5832.320312"/>
    <use xlink:href="#DejaVuSans-65" x="5895.699219"/>
    <use xlink:href="#DejaVuSans-64" x="5957.222656"/>
   </g>
  </g>
 </g>
 <defs>
  <clipPath id="pbd6056bc7e">
   <rect x="7.2" y="29.077969" width="669.6" height="443.52"/>
  </clipPath>
 </defs>
</svg>
