<?xml version="1.0" encoding="utf-8" ?>
<svg xmlns="http://www.w3.org/2000/svg" xmlns:ev="http://www.w3.org/2001/xml-events" xmlns:xlink="http://www.w3.org/1999/xlink" baseProfile="full" height="900" version="1.1" viewBox="0 0 1600 900" width="1600">
  <defs/>
  <rect fill="#F8FAFC" height="900" width="1600" x="0" y="0"/>
  <text fill="#0F172A" font-family="Arial, Helvetica, sans-serif" font-size="36" font-weight="bold" text-anchor="middle" x="800.0" y="58">FxFill Analytics &amp; AI Agent Observability Platform</text>
  <text fill="#64748B" font-family="Arial, Helvetica, sans-serif" font-size="18" font-weight="normal" text-anchor="middle" x="800.0" y="92">Layered analytics pipeline with explicit verification and release evidence</text>
  <rect fill="#ECFDF3" height="138" rx="22" ry="22" stroke="#9BD8B2" stroke-width="2" width="1532" x="34" y="112"/>
  <circle cx="88" cy="181.0" fill="#168A45" opacity="0.12" r="31"/>
  <circle cx="88" cy="181.0" fill="#168A45" r="23"/>
  <text fill="#FFFFFF" font-family="Arial, Helvetica, sans-serif" font-size="18" font-weight="bold" text-anchor="middle" x="88" y="187.0">1</text>
  <text fill="#168A45" font-family="Arial, Helvetica, sans-serif" font-size="20" font-weight="bold" text-anchor="start" x="128" y="160">
    <tspan dy="0" x="128">Data Generation</tspan>
    <tspan dy="21.0" x="128">Ingestion</tspan>
  </text>
  <rect fill="#EFF6FF" height="154" rx="22" ry="22" stroke="#AFC6F9" stroke-width="2" width="1532" x="34" y="270"/>
  <circle cx="88" cy="347.0" fill="#2F63C7" opacity="0.12" r="31"/>
  <circle cx="88" cy="347.0" fill="#2F63C7" r="23"/>
  <text fill="#FFFFFF" font-family="Arial, Helvetica, sans-serif" font-size="18" font-weight="bold" text-anchor="middle" x="88" y="353.0">2</text>
  <text fill="#2F63C7" font-family="Arial, Helvetica, sans-serif" font-size="20" font-weight="bold" text-anchor="start" x="128" y="318">
    <tspan dy="0" x="128">Warehouse</tspan>
    <tspan dy="21.0" x="128">Transformation</tspan>
  </text>
  <rect fill="#F5F3FF" height="154" rx="22" ry="22" stroke="#C9BDF5" stroke-width="2" width="1532" x="34" y="446"/>
  <circle cx="88" cy="523.0" fill="#6B4AC9" opacity="0.12" r="31"/>
  <circle cx="88" cy="523.0" fill="#6B4AC9" r="23"/>
  <text fill="#FFFFFF" font-family="Arial, Helvetica, sans-serif" font-size="18" font-weight="bold" text-anchor="middle" x="88" y="529.0">3</text>
  <text fill="#6B4AC9" font-family="Arial, Helvetica, sans-serif" font-size="20" font-weight="bold" text-anchor="start" x="128" y="494">
    <tspan dy="0" x="128">Analytics</tspan>
    <tspan dy="21.0" x="128">Observability</tspan>
  </text>
  <rect fill="#FFF4EE" height="188" rx="22" ry="22" stroke="#F4C2B3" stroke-width="2" width="1532" x="34" y="622"/>
  <circle cx="88" cy="716.0" fill="#E85C3A" opacity="0.12" r="31"/>
  <circle cx="88" cy="716.0" fill="#E85C3A" r="23"/>
  <text fill="#FFFFFF" font-family="Arial, Helvetica, sans-serif" font-size="18" font-weight="bold" text-anchor="middle" x="88" y="722.0">4</text>
  <text fill="#E85C3A" font-family="Arial, Helvetica, sans-serif" font-size="20" font-weight="bold" text-anchor="start" x="128" y="670">
    <tspan dy="0" x="128">Verification</tspan>
    <tspan dy="21.0" x="128">Release Evidence</tspan>
  </text>
  <rect fill="#FFFFFF" height="92" rx="18" ry="18" stroke="#9BD8B2" stroke-width="2" width="320" x="335" y="136"/>
  <ellipse cx="377" cy="172.64" fill="none" rx="15.600000000000001" ry="5.46" stroke="#168A45" stroke-width="2.34"/>
  <ellipse cx="377" cy="182.0" fill="none" rx="15.600000000000001" ry="5.46" stroke="#168A45" stroke-width="2.34"/>
  <ellipse cx="377" cy="191.36" fill="none" rx="15.600000000000001" ry="5.46" stroke="#168A45" stroke-width="2.34"/>
  <line stroke="#168A45" stroke-width="2.34" x1="361.4" x2="361.4" y1="172.64" y2="191.36"/>
  <line stroke="#168A45" stroke-width="2.34" x1="392.6" x2="392.6" y1="172.64" y2="191.36"/>
  <text fill="#0F172A" font-family="Arial, Helvetica, sans-serif" font-size="19" font-weight="bold" text-anchor="start" x="419" y="172">Synthetic Data Generators</text>
  <text fill="#64748B" font-family="Arial, Helvetica, sans-serif" font-size="13" font-weight="normal" text-anchor="start" x="419" y="198">
    <tspan dy="0" x="419">Product, user, agent,</tspan>
    <tspan dy="14.95" x="419">and financial data</tspan>
  </text>
  <rect fill="#FFFFFF" height="92" rx="18" ry="18" stroke="#9BD8B2" stroke-width="2" width="290" x="685" y="136"/>
  <polygon fill="none" points="727,163.28 744.16,172.64 740.26,192.14 727,203.06 713.74,192.14 709.84,172.64" stroke="#168A45" stroke-width="2.34"/>
  <polyline fill="none" points="719.2,182.78 725.44,189.8 737.14,175.76" stroke="#168A45" stroke-width="2.34"/>
  <text fill="#0F172A" font-family="Arial, Helvetica, sans-serif" font-size="19" font-weight="bold" text-anchor="start" x="769" y="172">Generation Validation</text>
  <text fill="#64748B" font-family="Arial, Helvetica, sans-serif" font-size="13" font-weight="normal" text-anchor="start" x="769" y="198">
    <tspan dy="0" x="769">Schemas, constraints,</tspan>
    <tspan dy="14.95" x="769">and quality checks</tspan>
  </text>
  <rect fill="#FFFFFF" height="92" rx="18" ry="18" stroke="#9BD8B2" stroke-width="2" width="360" x="1005" y="136"/>
  <rect fill="none" height="37.44" stroke="#168A45" stroke-width="2.34" width="26.52" x="1033.74" y="163.28"/>
  <line stroke="#168A45" stroke-width="1.8719999999999999" x1="1039.2" x2="1054.8" y1="175.76" y2="175.76"/>
  <line stroke="#168A45" stroke-width="1.8719999999999999" x1="1039.2" x2="1054.8" y1="183.56" y2="183.56"/>
  <line stroke="#168A45" stroke-width="1.8719999999999999" x1="1039.2" x2="1054.8" y1="191.35999999999999" y2="191.35999999999999"/>
  <text fill="#0F172A" font-family="Arial, Helvetica, sans-serif" font-size="19" font-weight="bold" text-anchor="start" x="1089" y="172">Versioned Parquet / CSV Assets</text>
  <text fill="#64748B" font-family="Arial, Helvetica, sans-serif" font-size="13" font-weight="normal" text-anchor="start" x="1089" y="198">
    <tspan dy="0" x="1089">Seven source domains for</tspan>
    <tspan dy="14.95" x="1089">reproducible ingestion</tspan>
  </text>
  <polyline fill="none" points="655,182 683,182" stroke="#168A45" stroke-linecap="round" stroke-linejoin="round" stroke-width="3"/>
  <polygon fill="#168A45" points="683,182 672.8680648939758,188.42992153974797 672.8680648939758,175.57007846025203" stroke="#168A45"/>
  <polyline fill="none" points="975,182 1003,182" stroke="#168A45" stroke-linecap="round" stroke-linejoin="round" stroke-width="3"/>
  <polygon fill="#168A45" points="1003,182 992.8680648939758,188.42992153974797 992.8680648939758,175.57007846025203" stroke="#168A45"/>
  <polyline fill="none" points="1185,228 1185,255 445,255 445,292" stroke="#168A45" stroke-linecap="round" stroke-linejoin="round" stroke-width="3"/>
  <polygon fill="#168A45" points="445,292 438.57007846025203,281.8680648939758 451.42992153974797,281.8680648939758" stroke="#168A45"/>
  <rect fill="#FFFFFF" height="104" rx="18" ry="18" stroke="#AFC6F9" stroke-width="2" width="240" x="335" y="298"/>
  <ellipse cx="377" cy="340.64" fill="none" rx="15.600000000000001" ry="5.46" stroke="#2F63C7" stroke-width="2.34"/>
  <ellipse cx="377" cy="350.0" fill="none" rx="15.600000000000001" ry="5.46" stroke="#2F63C7" stroke-width="2.34"/>
  <ellipse cx="377" cy="359.36" fill="none" rx="15.600000000000001" ry="5.46" stroke="#2F63C7" stroke-width="2.34"/>
  <line stroke="#2F63C7" stroke-width="2.34" x1="361.4" x2="361.4" y1="340.64" y2="359.36"/>
  <line stroke="#2F63C7" stroke-width="2.34" x1="392.6" x2="392.6" y1="340.64" y2="359.36"/>
  <text fill="#0F172A" font-family="Arial, Helvetica, sans-serif" font-size="18" font-weight="bold" text-anchor="start" x="419" y="334">DuckDB Warehouse</text>
  <text fill="#64748B" font-family="Arial, Helvetica, sans-serif" font-size="13" font-weight="normal" text-anchor="start" x="419" y="360">
    <tspan dy="0" x="419">7 raw tables</tspan>
    <tspan dy="14.95" x="419">local analytical storage</tspan>
  </text>
  <rect fill="#FFFFFF" height="104" rx="18" ry="18" stroke="#AFC6F9" stroke-width="2" width="210" x="602" y="298"/>
  <rect fill="none" height="10.92" stroke="#2F63C7" stroke-width="2.34" width="10.92" x="630.74" y="336.74"/>
  <rect fill="none" height="10.92" stroke="#2F63C7" stroke-width="2.34" width="10.92" x="630.74" y="352.34000000000003"/>
  <rect fill="none" height="10.92" stroke="#2F63C7" stroke-width="2.34" width="10.92" x="646.34" y="336.74"/>
  <rect fill="none" height="10.92" stroke="#2F63C7" stroke-width="2.34" width="10.92" x="646.34" y="352.34000000000003"/>
  <text fill="#0F172A" font-family="Arial, Helvetica, sans-serif" font-size="19" font-weight="bold" text-anchor="start" x="686" y="334">dbt Staging</text>
  <text fill="#64748B" font-family="Arial, Helvetica, sans-serif" font-size="13" font-weight="normal" text-anchor="start" x="686" y="360">
    <tspan dy="0" x="686">7 models</tspan>
    <tspan dy="14.95" x="686">clean &amp; standardized</tspan>
  </text>
  <rect fill="#FFFFFF" height="104" rx="18" ry="18" stroke="#C9BDF5" stroke-width="2" width="250" x="839" y="298"/>
  <polygon fill="none" points="881,329.71999999999997 899.72,342.2 881,354.68 862.28,342.2" stroke="#6B4AC9" stroke-width="2.34"/>
  <polygon fill="none" points="881,337.52 899.72,350.0 881,362.48 862.28,350.0" stroke="#6B4AC9" stroke-width="2.34"/>
  <polygon fill="none" points="881,345.32 899.72,357.8 881,370.28000000000003 862.28,357.8" stroke="#6B4AC9" stroke-width="2.34"/>
  <text fill="#0F172A" font-family="Arial, Helvetica, sans-serif" font-size="18" font-weight="bold" text-anchor="start" x="923" y="334">dbt Intermediate</text>
  <text fill="#64748B" font-family="Arial, Helvetica, sans-serif" font-size="13" font-weight="normal" text-anchor="start" x="923" y="360">
    <tspan dy="0" x="923">13 models</tspan>
    <tspan dy="14.95" x="923">business logic &amp; enrichment</tspan>
  </text>
  <rect fill="#FFFFFF" height="124" rx="18" ry="18" stroke="#C9BDF5" stroke-width="2" width="390" x="1116" y="286"/>
  <text fill="#0F172A" font-family="Arial, Helvetica, sans-serif" font-size="20" font-weight="bold" text-anchor="middle" x="1311" y="319">Analytics Marts</text>
  <text fill="#64748B" font-family="Arial, Helvetica, sans-serif" font-size="12" font-weight="normal" text-anchor="middle" x="1311" y="344">21 models • curated subject-oriented outputs</text>
  <rect fill="#F5F3FF" height="36" rx="8" ry="8" stroke="#C9BDF5" stroke-width="1.3" width="78" x="1136" y="357"/>
  <text fill="#6B4AC9" font-family="Arial, Helvetica, sans-serif" font-size="10" font-weight="bold" text-anchor="middle" x="1175" y="374">Product</text>
  <text fill="#64748B" font-family="Arial, Helvetica, sans-serif" font-size="8" font-weight="normal" text-anchor="middle" x="1175" y="388">9 marts</text>
  <rect fill="#F5F3FF" height="36" rx="8" ry="8" stroke="#C9BDF5" stroke-width="1.3" width="78" x="1226" y="357"/>
  <text fill="#6B4AC9" font-family="Arial, Helvetica, sans-serif" font-size="10" font-weight="bold" text-anchor="middle" x="1265" y="374">Agent</text>
  <text fill="#64748B" font-family="Arial, Helvetica, sans-serif" font-size="8" font-weight="normal" text-anchor="middle" x="1265" y="388">5 marts</text>
  <rect fill="#F5F3FF" height="36" rx="8" ry="8" stroke="#C9BDF5" stroke-width="1.3" width="78" x="1316" y="357"/>
  <text fill="#6B4AC9" font-family="Arial, Helvetica, sans-serif" font-size="10" font-weight="bold" text-anchor="middle" x="1355" y="374">Experiment</text>
  <text fill="#64748B" font-family="Arial, Helvetica, sans-serif" font-size="8" font-weight="normal" text-anchor="middle" x="1355" y="388">4 marts</text>
  <rect fill="#F5F3FF" height="36" rx="8" ry="8" stroke="#C9BDF5" stroke-width="1.3" width="78" x="1406" y="357"/>
  <text fill="#6B4AC9" font-family="Arial, Helvetica, sans-serif" font-size="10" font-weight="bold" text-anchor="middle" x="1445" y="374">Executive</text>
  <text fill="#64748B" font-family="Arial, Helvetica, sans-serif" font-size="8" font-weight="normal" text-anchor="middle" x="1445" y="388">3 marts</text>
  <polyline fill="none" points="575,350 600,350" stroke="#2F63C7" stroke-linecap="round" stroke-linejoin="round" stroke-width="3"/>
  <polygon fill="#2F63C7" points="600,350 589.8680648939758,356.42992153974797 589.8680648939758,343.57007846025203" stroke="#2F63C7"/>
  <polyline fill="none" points="812,350 837,350" stroke="#2F63C7" stroke-linecap="round" stroke-linejoin="round" stroke-width="3"/>
  <polygon fill="#2F63C7" points="837,350 826.8680648939758,356.42992153974797 826.8680648939758,343.57007846025203" stroke="#2F63C7"/>
  <polyline fill="none" points="1089,350 1114,350" stroke="#6B4AC9" stroke-linecap="round" stroke-linejoin="round" stroke-width="3"/>
  <polygon fill="#6B4AC9" points="1114,350 1103.8680648939758,356.42992153974797 1103.8680648939758,343.57007846025203" stroke="#6B4AC9"/>
  <rect fill="#FFF4EE" height="104" rx="18" ry="18" stroke="#F4C2B3" stroke-width="2" width="250" x="335" y="478"/>
  <rect fill="none" height="24.18" stroke="#E85C3A" stroke-width="2.34" width="37.44" x="358.28" y="516.74"/>
  <line stroke="#E85C3A" stroke-width="2.34" x1="377" x2="377" y1="540.92" y2="547.94"/>
  <line stroke="#E85C3A" stroke-width="2.34" x1="369.2" x2="384.8" y1="547.94" y2="547.94"/>
  <text fill="#0F172A" font-family="Arial, Helvetica, sans-serif" font-size="17" font-weight="bold" text-anchor="start" x="419" y="514">Streamlit Dashboard</text>
  <text fill="#64748B" font-family="Arial, Helvetica, sans-serif" font-size="12" font-weight="normal" text-anchor="start" x="419" y="540">
    <tspan dy="0" x="419">8 pages</tspan>
    <tspan dy="13.799999999999999" x="419">product &amp; executive analytics</tspan>
  </text>
  <rect fill="#ECFEFF" height="104" rx="18" ry="18" stroke="#A5D9D6" stroke-width="2" width="250" x="630" y="478"/>
  <rect fill="none" height="24.96" rx="5.46" ry="5.46" stroke="#0D7F7A" stroke-width="2.34" width="37.44" x="653.28" y="517.52"/>
  <circle cx="664.98" cy="530.0" fill="#0D7F7A" r="2.34"/>
  <circle cx="679.02" cy="530.0" fill="#0D7F7A" r="2.34"/>
  <line stroke="#0D7F7A" stroke-width="2.34" x1="672" x2="672" y1="517.52" y2="509.72"/>
  <circle cx="672" cy="507.38" fill="#0D7F7A" r="2.34"/>
  <text fill="#0F172A" font-family="Arial, Helvetica, sans-serif" font-size="17" font-weight="bold" text-anchor="start" x="714" y="514">AI Agent Observability</text>
  <text fill="#64748B" font-family="Arial, Helvetica, sans-serif" font-size="12" font-weight="normal" text-anchor="start" x="714" y="540">
    <tspan dy="0" x="714">Success, latency, tokens,</tspan>
    <tspan dy="13.799999999999999" x="714">cost, models &amp; errors</tspan>
  </text>
  <rect fill="#FFFBEB" height="104" rx="18" ry="18" stroke="#E8D69A" stroke-width="2" width="250" x="925" y="478"/>
  <polyline fill="none" points="961.54,511.28 961.54,528.44 950.62,548.72 983.38,548.72 972.46,528.44 972.46,511.28" stroke="#C78608" stroke-width="2.34"/>
  <line stroke="#C78608" stroke-width="2.34" x1="958.42" x2="975.58" y1="511.28" y2="511.28"/>
  <text fill="#0F172A" font-family="Arial, Helvetica, sans-serif" font-size="17" font-weight="bold" text-anchor="start" x="1009" y="514">Experimentation Engine</text>
  <text fill="#64748B" font-family="Arial, Helvetica, sans-serif" font-size="12" font-weight="normal" text-anchor="start" x="1009" y="540">
    <tspan dy="0" x="1009">A/B evaluation</tspan>
    <tspan dy="13.799999999999999" x="1009">5,000 bootstrap iterations</tspan>
  </text>
  <rect fill="#F5F3FF" height="104" rx="18" ry="18" stroke="#C9BDF5" stroke-width="2" width="250" x="1220" y="478"/>
  <line stroke="#6B4AC9" stroke-width="2.34" x1="1262" x2="1262" y1="511.28" y2="548.72"/>
  <line stroke="#6B4AC9" stroke-width="2.34" x1="1262" x2="1276.04" y1="526.1" y2="514.4"/>
  <line stroke="#6B4AC9" stroke-width="2.34" x1="1262" x2="1247.96" y1="533.9" y2="545.6"/>
  <text fill="#0F172A" font-family="Arial, Helvetica, sans-serif" font-size="17" font-weight="bold" text-anchor="start" x="1304" y="514">Root-Cause Analytics</text>
  <text fill="#64748B" font-family="Arial, Helvetica, sans-serif" font-size="12" font-weight="normal" text-anchor="start" x="1304" y="540">
    <tspan dy="0" x="1304">Kitagawa decomposition</tspan>
    <tspan dy="13.799999999999999" x="1304">and business insights</tspan>
  </text>
  <polyline fill="none" points="1311,410 1311,448 460,448 460,476" stroke="#6B4AC9" stroke-linecap="round" stroke-linejoin="round" stroke-width="3"/>
  <polygon fill="#6B4AC9" points="460,476 453.57007846025203,465.8680648939758 466.42992153974797,465.8680648939758" stroke="#6B4AC9"/>
  <polyline fill="none" points="755,448 755,476" stroke="#6B4AC9" stroke-linecap="round" stroke-linejoin="round" stroke-width="3"/>
  <polygon fill="#6B4AC9" points="755,476 748.570078460252,465.8680648939758 761.429921539748,465.8680648939758" stroke="#6B4AC9"/>
  <polyline fill="none" points="1050,448 1050,476" stroke="#6B4AC9" stroke-linecap="round" stroke-linejoin="round" stroke-width="3"/>
  <polygon fill="#6B4AC9" points="1050,476 1043.570078460252,465.8680648939758 1056.429921539748,465.8680648939758" stroke="#6B4AC9"/>
  <polyline fill="none" points="1345,448 1345,476" stroke="#6B4AC9" stroke-linecap="round" stroke-linejoin="round" stroke-width="3"/>
  <polygon fill="#6B4AC9" points="1345,476 1338.570078460252,465.8680648939758 1351.429921539748,465.8680648939758" stroke="#6B4AC9"/>
  <rect fill="#FFFFFF" height="112" rx="18" ry="18" stroke="#F4C2B3" stroke-width="2" width="300" x="335" y="660"/>
  <rect fill="none" height="35.88" stroke="#E85C3A" stroke-width="2.34" width="29.64" x="362.18" y="698.06"/>
  <rect fill="#FFFFFF" height="7.0200000000000005" rx="2.34" ry="2.34" stroke="#E85C3A" stroke-width="2.34" width="12.48" x="370.76" y="694.16"/>
  <line stroke="#E85C3A" stroke-width="1.8719999999999999" x1="368.42" x2="385.58" y1="710.54" y2="710.54"/>
  <line stroke="#E85C3A" stroke-width="1.8719999999999999" x1="368.42" x2="385.58" y1="718.3399999999999" y2="718.3399999999999"/>
  <line stroke="#E85C3A" stroke-width="1.8719999999999999" x1="368.42" x2="385.58" y1="726.14" y2="726.14"/>
  <text fill="#0F172A" font-family="Arial, Helvetica, sans-serif" font-size="16" font-weight="bold" text-anchor="start" x="419" y="696">Data Quality, Reconciliation &amp; Audit</text>
  <text fill="#64748B" font-family="Arial, Helvetica, sans-serif" font-size="13" font-weight="normal" text-anchor="start" x="419" y="722">
    <tspan dy="0" x="419">Provenance • raw-to-staging checks</tspan>
    <tspan dy="14.95" x="419">stale-artifact detection • audit reports</tspan>
  </text>
  <rect fill="#FFFFFF" height="112" rx="18" ry="18" stroke="#A5D9D6" stroke-width="2" width="270" x="665" y="660"/>
  <polygon fill="none" points="707,697.28 724.16,706.64 720.26,726.14 707,737.06 693.74,726.14 689.84,706.64" stroke="#0D7F7A" stroke-width="2.34"/>
  <polyline fill="none" points="699.2,716.78 705.44,723.8 717.14,709.76" stroke="#0D7F7A" stroke-width="2.34"/>
  <text fill="#0F172A" font-family="Arial, Helvetica, sans-serif" font-size="17" font-weight="bold" text-anchor="start" x="749" y="696">Dashboard Truthfulness</text>
  <text fill="#64748B" font-family="Arial, Helvetica, sans-serif" font-size="13" font-weight="normal" text-anchor="start" x="749" y="722">
    <tspan dy="0" x="749">Database-to-UI reconciliation</tspan>
    <tspan dy="14.95" x="749">NaN/None &amp; trace inspection</tspan>
  </text>
  <rect fill="#FFFFFF" height="112" rx="18" ry="18" stroke="#CBD5E1" stroke-width="2" width="235" x="965" y="660"/>
  <circle cx="1007" cy="716.0" fill="none" r="17.94" stroke="#334155" stroke-width="2.34"/>
  <polyline fill="none" points="997.64,716.78 1004.66,724.58 1017.92,708.2" stroke="#334155" stroke-width="2.34"/>
  <text fill="#0F172A" font-family="Arial, Helvetica, sans-serif" font-size="18" font-weight="bold" text-anchor="start" x="1049" y="696">Release Verifier</text>
  <text fill="#64748B" font-family="Arial, Helvetica, sans-serif" font-size="13" font-weight="normal" text-anchor="start" x="1049" y="722">
    <tspan dy="0" x="1049">11 required gates</tspan>
    <tspan dy="14.95" x="1049">PASS / FAIL / NOT_RUN</tspan>
  </text>
  <rect fill="#FFFFFF" height="112" rx="18" ry="18" stroke="#A5D9D6" stroke-width="2" width="280" x="1230" y="660"/>
  <circle cx="1272" cy="716.0" fill="none" r="17.94" stroke="#0D7F7A" stroke-width="2.34"/>
  <polyline fill="none" points="1262.64,716.78 1269.66,724.58 1282.92,708.2" stroke="#0D7F7A" stroke-width="2.34"/>
  <text fill="#0F172A" font-family="Arial, Helvetica, sans-serif" font-size="16" font-weight="bold" text-anchor="start" x="1314" y="696">Acceptance Evidence &amp; Immutable Release</text>
  <text fill="#64748B" font-family="Arial, Helvetica, sans-serif" font-size="13" font-weight="normal" text-anchor="start" x="1314" y="722">
    <tspan dy="0" x="1314">Core + portfolio reports</tspan>
    <tspan dy="14.95" x="1314">hashed artifacts &amp; Git tag</tspan>
  </text>
  <polyline fill="none" points="635,716 663,716" stroke="#E85C3A" stroke-linecap="round" stroke-linejoin="round" stroke-width="3"/>
  <polygon fill="#E85C3A" points="663,716 652.8680648939758,722.429921539748 652.8680648939758,709.570078460252" stroke="#E85C3A"/>
  <polyline fill="none" points="935,716 963,716" stroke="#334155" stroke-linecap="round" stroke-linejoin="round" stroke-width="3"/>
  <polygon fill="#334155" points="963,716 952.8680648939758,722.429921539748 952.8680648939758,709.570078460252" stroke="#334155"/>
  <polyline fill="none" points="1200,716 1228,716" stroke="#0D7F7A" stroke-linecap="round" stroke-linejoin="round" stroke-width="3"/>
  <polygon fill="#0D7F7A" points="1228,716 1217.8680648939758,722.429921539748 1217.8680648939758,709.570078460252" stroke="#0D7F7A"/>
  <polyline fill="none" points="460,582 460,620" stroke="#334155" stroke-dasharray="7,6" stroke-linecap="round" stroke-linejoin="round" stroke-width="2"/>
  <polygon fill="#334155" points="460,620 453.57007846025203,609.8680648939758 466.42992153974797,609.8680648939758" stroke="#334155"/>
  <polyline fill="none" points="755,582 755,620" stroke="#334155" stroke-dasharray="7,6" stroke-linecap="round" stroke-linejoin="round" stroke-width="2"/>
  <polygon fill="#334155" points="755,620 748.570078460252,609.8680648939758 761.429921539748,609.8680648939758" stroke="#334155"/>
  <polyline fill="none" points="1050,582 1050,620" stroke="#334155" stroke-dasharray="7,6" stroke-linecap="round" stroke-linejoin="round" stroke-width="2"/>
  <polygon fill="#334155" points="1050,620 1043.570078460252,609.8680648939758 1056.429921539748,609.8680648939758" stroke="#334155"/>
  <polyline fill="none" points="1345,582 1345,620" stroke="#334155" stroke-dasharray="7,6" stroke-linecap="round" stroke-linejoin="round" stroke-width="2"/>
  <polygon fill="#334155" points="1345,620 1338.570078460252,609.8680648939758 1351.429921539748,609.8680648939758" stroke="#334155"/>
  <polyline fill="none" points="1345,620 485,620 485,658" stroke="#334155" stroke-dasharray="7,6" stroke-linecap="round" stroke-linejoin="round" stroke-width="2"/>
  <polygon fill="#334155" points="485,658 478.57007846025203,647.8680648939758 491.42992153974797,647.8680648939758" stroke="#334155"/>
  <rect fill="#F1F5F9" height="36" rx="9" ry="9" stroke="#CBD5E1" stroke-width="1.2" width="1080" x="260" y="842"/>
  <text fill="#334155" font-family="Arial, Helvetica, sans-serif" font-size="13" font-weight="bold" text-anchor="middle" x="800.0" y="866">Verified master snapshot: 485 / 485 pytest  •  41 / 41 dbt models  •  44 / 44 dbt tests  •  11 / 11 gates  •  dashboard HTTP 200 / 200</text>
</svg>
