<?xml version="1.0" encoding="utf-8" standalone="no"?>
<!DOCTYPE svg PUBLIC "-//W3C//DTD SVG 1.1//EN"
  "http://www.w3.org/Graphics/SVG/1.1/DTD/svg11.dtd">
<svg xmlns:xlink="http://www.w3.org/1999/xlink" width="907.2pt" height="533.997813pt" viewBox="0 0 907.2 533.997813" xmlns="http://www.w3.org/2000/svg" version="1.1">
 <metadata>
  <rdf:RDF xmlns:dc="http://purl.org/dc/elements/1.1/" xmlns:cc="http://creativecommons.org/ns#" xmlns:rdf="http://www.w3.org/1999/02/22-rdf-syntax-ns#">
   <cc:Work>
    <dc:type rdf:resource="http://purl.org/dc/dcmitype/StillImage"/>
    <dc:date>2026-06-17T15:26:09.442014</dc:date>
    <dc:format>image/svg+xml</dc:format>
    <dc:creator>
     <cc:Agent>
      <dc:title>Matplotlib v3.11.0, https://matplotlib.org/</dc:title>
     </cc:Agent>
    </dc:creator>
   </cc:Work>
  </rdf:RDF>
 </metadata>
 <defs>
  <style type="text/css">*{stroke-linejoin: round; stroke-linecap: butt}</style>
 </defs>
 <g id="figure_1">
  <g id="patch_1">
   <path d="M 0 533.997813 
L 907.2 533.997813 
L 907.2 -0 
L 0 -0 
z
" style="fill: #ffffff"/>
  </g>
  <g id="axes_1">
   <g id="patch_2">
    <path d="M 35.1 305.037813 
L 96.48 305.037813 
L 96.48 232.965813 
L 35.1 232.965813 
z
" clip-path="url(#pda1b774819)" style="fill: #fff3e0; opacity: 0.9; stroke: #e65100; stroke-width: 1.5; stroke-linejoin: miter"/>
   </g>
   <g id="patch_3">
    <path d="M 104.85 305.037813 
L 166.23 305.037813 
L 166.23 232.965813 
L 104.85 232.965813 
z
" clip-path="url(#pda1b774819)" style="fill: #fff3e0; opacity: 0.9; stroke: #e65100; stroke-width: 1.5; stroke-linejoin: miter"/>
   </g>
   <g id="patch_4">
    <path d="M 174.6 305.037813 
L 235.98 305.037813 
L 235.98 232.965813 
L 174.6 232.965813 
z
" clip-path="url(#pda1b774819)" style="fill: #fff3e0; opacity: 0.9; stroke: #e65100; stroke-width: 1.5; stroke-linejoin: miter"/>
   </g>
   <g id="patch_5">
    <path d="M 244.35 305.037813 
L 305.73 305.037813 
L 305.73 232.965813 
L 244.35 232.965813 
z
" clip-path="url(#pda1b774819)" style="fill: #fff3e0; opacity: 0.9; stroke: #e65100; stroke-width: 1.5; stroke-linejoin: miter"/>
   </g>
   <g id="patch_6">
    <path d="M 314.1 305.037813 
L 375.48 305.037813 
L 375.48 232.965813 
L 314.1 232.965813 
z
" clip-path="url(#pda1b774819)" style="fill: #fff3e0; opacity: 0.9; stroke: #e65100; stroke-width: 1.5; stroke-linejoin: miter"/>
   </g>
   <g id="patch_7">
    <path d="M 383.85 305.037813 
L 445.23 305.037813 
L 445.23 232.965813 
L 383.85 232.965813 
z
" clip-path="url(#pda1b774819)" style="fill: #fff3e0; opacity: 0.9; stroke: #e65100; stroke-width: 1.5; stroke-linejoin: miter"/>
   </g>
   <g id="patch_8">
    <path d="M 453.6 305.037813 
L 514.98 305.037813 
L 514.98 232.965813 
L 453.6 232.965813 
z
" clip-path="url(#pda1b774819)" style="fill: #fff3e0; opacity: 0.9; stroke: #e65100; stroke-width: 1.5; stroke-linejoin: miter"/>
   </g>
   <g id="patch_9">
    <path d="M 523.35 305.037813 
L 584.73 305.037813 
L 584.73 232.965813 
L 523.35 232.965813 
z
" clip-path="url(#pda1b774819)" style="fill: #fff3e0; opacity: 0.9; stroke: #e65100; stroke-width: 1.5; stroke-linejoin: miter"/>
   </g>
   <g id="patch_10">
    <path d="M 593.1 305.037813 
L 654.48 305.037813 
L 654.48 232.965813 
L 593.1 232.965813 
z
" clip-path="url(#pda1b774819)" style="fill: #fff3e0; opacity: 0.9; stroke: #e65100; stroke-width: 1.5; stroke-linejoin: miter"/>
   </g>
   <g id="patch_11">
    <path d="M 662.85 305.037813 
L 724.23 305.037813 
L 724.23 232.965813 
L 662.85 232.965813 
z
" clip-path="url(#pda1b774819)" style="fill: #fff3e0; opacity: 0.9; stroke: #e65100; stroke-width: 1.5; stroke-linejoin: miter"/>
   </g>
   <g id="patch_12">
    <path d="M 732.6 305.037813 
L 793.98 305.037813 
L 793.98 232.965813 
L 732.6 232.965813 
z
" clip-path="url(#pda1b774819)" style="fill: #fff3e0; opacity: 0.9; stroke: #e65100; stroke-width: 1.5; stroke-linejoin: miter"/>
   </g>
   <g id="patch_13">
    <path d="M 802.35 305.037813 
L 863.73 305.037813 
L 863.73 232.965813 
L 802.35 232.965813 
z
" clip-path="url(#pda1b774819)" style="fill: #fff3e0; opacity: 0.9; stroke: #e65100; stroke-width: 1.5; stroke-linejoin: miter"/>
   </g>
   <g id="text_1">
    <!-- Assignment -->
    <g transform="translate(39.210625 271.08025) scale(0.08 -0.08)">
     <defs>
      <path id="DejaVuSans-Bold-24" d="M 3419 850 
L 1538 850 
L 1241 0 
L 31 0 
L 1759 4666 
L 3194 4666 
L 4922 0 
L 3713 0 
L 3419 850 
z
M 1838 1716 
L 3116 1716 
L 2478 3572 
L 1838 1716 
z
" transform="scale(0.015625)"/>
      <path id="DejaVuSans-Bold-56" d="M 3272 3391 
L 3272 2541 
Q 2913 2691 2578 2766 
Q 2244 2841 1947 2841 
Q 1628 2841 1473 2761 
Q 1319 2681 1319 2516 
Q 1319 2381 1436 2309 
Q 1553 2238 1856 2203 
L 2053 2175 
Q 2913 2066 3209 1816 
Q 3506 1566 3506 1031 
Q 3506 472 3093 190 
Q 2681 -91 1863 -91 
Q 1516 -91 1145 -36 
Q 775 19 384 128 
L 384 978 
Q 719 816 1070 734 
Q 1422 653 1784 653 
Q 2113 653 2278 743 
Q 2444 834 2444 1013 
Q 2444 1163 2330 1236 
Q 2216 1309 1875 1350 
L 1678 1375 
Q 931 1469 631 1722 
Q 331 1975 331 2491 
Q 331 3047 712 3315 
Q 1094 3584 1881 3584 
Q 2191 3584 2531 3537 
Q 2872 3491 3272 3391 
z
" transform="scale(0.015625)"/>
      <path id="DejaVuSans-Bold-4c" d="M 538 3500 
L 1656 3500 
L 1656 0 
L 538 0 
L 538 3500 
z
M 538 4863 
L 1656 4863 
L 1656 3950 
L 538 3950 
L 538 4863 
z
" transform="scale(0.015625)"/>
      <path id="DejaVuSans-Bold-4a" d="M 2919 594 
Q 2688 288 2409 144 
Q 2131 0 1766 0 
Q 1125 0 706 504 
Q 288 1009 288 1791 
Q 288 2575 706 3076 
Q 1125 3578 1766 3578 
Q 2131 3578 2409 3434 
Q 2688 3291 2919 2981 
L 2919 3500 
L 4044 3500 
L 4044 353 
Q 4044 -491 3511 -936 
Q 2978 -1381 1966 -1381 
Q 1638 -1381 1331 -1331 
Q 1025 -1281 716 -1178 
L 716 -306 
Q 1009 -475 1290 -558 
Q 1572 -641 1856 -641 
Q 2406 -641 2662 -400 
Q 2919 -159 2919 353 
L 2919 594 
z
M 2181 2772 
Q 1834 2772 1640 2515 
Q 1447 2259 1447 1791 
Q 1447 1309 1634 1061 
Q 1822 813 2181 813 
Q 2531 813 2725 1069 
Q 2919 1325 2919 1791 
Q 2919 2259 2725 2515 
Q 2531 2772 2181 2772 
z
" transform="scale(0.015625)"/>
      <path id="DejaVuSans-Bold-51" d="M 4056 2131 
L 4056 0 
L 2931 0 
L 2931 347 
L 2931 1631 
Q 2931 2084 2911 2256 
Q 2891 2428 2841 2509 
Q 2775 2619 2662 2680 
Q 2550 2741 2406 2741 
Q 2056 2741 1856 2470 
Q 1656 2200 1656 1722 
L 1656 0 
L 538 0 
L 538 3500 
L 1656 3500 
L 1656 2988 
Q 1909 3294 2193 3439 
Q 2478 3584 2822 3584 
Q 3428 3584 3742 3212 
Q 4056 2841 4056 2131 
z
" transform="scale(0.015625)"/>
      <path id="DejaVuSans-Bold-50" d="M 3781 2919 
Q 3994 3244 4286 3414 
Q 4578 3584 4928 3584 
Q 5531 3584 5847 3212 
Q 6163 2841 6163 2131 
L 6163 0 
L 5038 0 
L 5038 1825 
Q 5041 1866 5042 1909 
Q 5044 1953 5044 2034 
Q 5044 2406 4934 2573 
Q 4825 2741 4581 2741 
Q 4263 2741 4089 2478 
Q 3916 2216 3909 1719 
L 3909 0 
L 2784 0 
L 2784 1825 
Q 2784 2406 2684 2573 
Q 2584 2741 2328 2741 
Q 2006 2741 1831 2477 
Q 1656 2213 1656 1722 
L 1656 0 
L 531 0 
L 531 3500 
L 1656 3500 
L 1656 2988 
Q 1863 3284 2130 3434 
Q 2397 3584 2719 3584 
Q 3081 3584 3359 3409 
Q 3638 3234 3781 2919 
z
" transform="scale(0.015625)"/>
      <path id="DejaVuSans-Bold-48" d="M 4031 1759 
L 4031 1441 
L 1416 1441 
Q 1456 1047 1700 850 
Q 1944 653 2381 653 
Q 2734 653 3104 758 
Q 3475 863 3866 1075 
L 3866 213 
Q 3469 63 3072 -14 
Q 2675 -91 2278 -91 
Q 1328 -91 801 392 
Q 275 875 275 1747 
Q 275 2603 792 3093 
Q 1309 3584 2216 3584 
Q 3041 3584 3536 3087 
Q 4031 2591 4031 1759 
z
M 2881 2131 
Q 2881 2450 2695 2645 
Q 2509 2841 2209 2841 
Q 1884 2841 1681 2658 
Q 1478 2475 1428 2131 
L 2881 2131 
z
" transform="scale(0.015625)"/>
      <path id="DejaVuSans-Bold-57" d="M 1759 4494 
L 1759 3500 
L 2913 3500 
L 2913 2700 
L 1759 2700 
L 1759 1216 
Q 1759 972 1856 886 
Q 1953 800 2241 800 
L 2816 800 
L 2816 0 
L 1856 0 
Q 1194 0 917 276 
Q 641 553 641 1216 
L 641 2700 
L 84 2700 
L 84 3500 
L 641 3500 
L 641 4494 
L 1759 4494 
z
" transform="scale(0.015625)"/>
     </defs>
     <use xlink:href="#DejaVuSans-Bold-24"/>
     <use xlink:href="#DejaVuSans-Bold-56" transform="translate(77.390625 0)"/>
     <use xlink:href="#DejaVuSans-Bold-56" transform="translate(136.90625 0)"/>
     <use xlink:href="#DejaVuSans-Bold-4c" transform="translate(196.421875 0)"/>
     <use xlink:href="#DejaVuSans-Bold-4a" transform="translate(230.703125 0)"/>
     <use xlink:href="#DejaVuSans-Bold-51" transform="translate(302.28125 0)"/>
     <use xlink:href="#DejaVuSans-Bold-50" transform="translate(373.46875 0)"/>
     <use xlink:href="#DejaVuSans-Bold-48" transform="translate(477.671875 0)"/>
     <use xlink:href="#DejaVuSans-Bold-51" transform="translate(545.5 0)"/>
     <use xlink:href="#DejaVuSans-Bold-57" transform="translate(616.6875 0)"/>
    </g>
   </g>
   <g id="text_2">
    <!-- Population -->
    <g transform="translate(111.2 266.279156) scale(0.08 -0.08)">
     <defs>
      <path id="DejaVuSans-Bold-33" d="M 588 4666 
L 2584 4666 
Q 3475 4666 3951 4270 
Q 4428 3875 4428 3144 
Q 4428 2409 3951 2014 
Q 3475 1619 2584 1619 
L 1791 1619 
L 1791 0 
L 588 0 
L 588 4666 
z
M 1791 3794 
L 1791 2491 
L 2456 2491 
Q 2806 2491 2997 2661 
Q 3188 2831 3188 3144 
Q 3188 3456 2997 3625 
Q 2806 3794 2456 3794 
L 1791 3794 
z
" transform="scale(0.015625)"/>
      <path id="DejaVuSans-Bold-52" d="M 2203 2784 
Q 1831 2784 1636 2517 
Q 1441 2250 1441 1747 
Q 1441 1244 1636 976 
Q 1831 709 2203 709 
Q 2569 709 2762 976 
Q 2956 1244 2956 1747 
Q 2956 2250 2762 2517 
Q 2569 2784 2203 2784 
z
M 2203 3584 
Q 3106 3584 3614 3096 
Q 4122 2609 4122 1747 
Q 4122 884 3614 396 
Q 3106 -91 2203 -91 
Q 1297 -91 786 396 
Q 275 884 275 1747 
Q 275 2609 786 3096 
Q 1297 3584 2203 3584 
z
" transform="scale(0.015625)"/>
      <path id="DejaVuSans-Bold-53" d="M 1656 506 
L 1656 -1331 
L 538 -1331 
L 538 3500 
L 1656 3500 
L 1656 2988 
Q 1888 3294 2169 3439 
Q 2450 3584 2816 3584 
Q 3463 3584 3878 3070 
Q 4294 2556 4294 1747 
Q 4294 938 3878 423 
Q 3463 -91 2816 -91 
Q 2450 -91 2169 54 
Q 1888 200 1656 506 
z
M 2400 2772 
Q 2041 2772 1848 2508 
Q 1656 2244 1656 1747 
Q 1656 1250 1848 986 
Q 2041 722 2400 722 
Q 2759 722 2948 984 
Q 3138 1247 3138 1747 
Q 3138 2247 2948 2509 
Q 2759 2772 2400 2772 
z
" transform="scale(0.015625)"/>
      <path id="DejaVuSans-Bold-58" d="M 500 1363 
L 500 3500 
L 1625 3500 
L 1625 3150 
Q 1625 2866 1622 2436 
Q 1619 2006 1619 1863 
Q 1619 1441 1641 1255 
Q 1663 1069 1716 984 
Q 1784 875 1895 815 
Q 2006 756 2150 756 
Q 2500 756 2700 1025 
Q 2900 1294 2900 1772 
L 2900 3500 
L 4019 3500 
L 4019 0 
L 2900 0 
L 2900 506 
Q 2647 200 2364 54 
Q 2081 -91 1741 -91 
Q 1134 -91 817 281 
Q 500 653 500 1363 
z
" transform="scale(0.015625)"/>
      <path id="DejaVuSans-Bold-4f" d="M 538 4863 
L 1656 4863 
L 1656 0 
L 538 0 
L 538 4863 
z
" transform="scale(0.015625)"/>
      <path id="DejaVuSans-Bold-44" d="M 2106 1575 
Q 1756 1575 1579 1456 
Q 1403 1338 1403 1106 
Q 1403 894 1545 773 
Q 1688 653 1941 653 
Q 2256 653 2472 879 
Q 2688 1106 2688 1447 
L 2688 1575 
L 2106 1575 
z
M 3816 1997 
L 3816 0 
L 2688 0 
L 2688 519 
Q 2463 200 2181 54 
Q 1900 -91 1497 -91 
Q 953 -91 614 226 
Q 275 544 275 1050 
Q 275 1666 698 1953 
Q 1122 2241 2028 2241 
L 2688 2241 
L 2688 2328 
Q 2688 2594 2478 2717 
Q 2269 2841 1825 2841 
Q 1466 2841 1156 2769 
Q 847 2697 581 2553 
L 581 3406 
Q 941 3494 1303 3539 
Q 1666 3584 2028 3584 
Q 2975 3584 3395 3211 
Q 3816 2838 3816 1997 
z
" transform="scale(0.015625)"/>
     </defs>
     <use xlink:href="#DejaVuSans-Bold-33"/>
     <use xlink:href="#DejaVuSans-Bold-52" transform="translate(73.296875 0)"/>
     <use xlink:href="#DejaVuSans-Bold-53" transform="translate(142 0)"/>
     <use xlink:href="#DejaVuSans-Bold-58" transform="translate(213.578125 0)"/>
     <use xlink:href="#DejaVuSans-Bold-4f" transform="translate(284.765625 0)"/>
     <use xlink:href="#DejaVuSans-Bold-44" transform="translate(319.046875 0)"/>
     <use xlink:href="#DejaVuSans-Bold-57" transform="translate(386.53125 0)"/>
     <use xlink:href="#DejaVuSans-Bold-4c" transform="translate(434.328125 0)"/>
     <use xlink:href="#DejaVuSans-Bold-52" transform="translate(468.609375 0)"/>
     <use xlink:href="#DejaVuSans-Bold-51" transform="translate(537.3125 0)"/>
    </g>
    <!-- Validation -->
    <g transform="translate(112.78 275.881344) scale(0.08 -0.08)">
     <defs>
      <path id="DejaVuSans-Bold-39" d="M 31 4666 
L 1241 4666 
L 2478 1222 
L 3713 4666 
L 4922 4666 
L 3194 0 
L 1759 0 
L 31 4666 
z
" transform="scale(0.015625)"/>
      <path id="DejaVuSans-Bold-47" d="M 2919 2988 
L 2919 4863 
L 4044 4863 
L 4044 0 
L 2919 0 
L 2919 506 
Q 2688 197 2409 53 
Q 2131 -91 1766 -91 
Q 1119 -91 703 423 
Q 288 938 288 1747 
Q 288 2556 703 3070 
Q 1119 3584 1766 3584 
Q 2128 3584 2408 3439 
Q 2688 3294 2919 2988 
z
M 2181 722 
Q 2541 722 2730 984 
Q 2919 1247 2919 1747 
Q 2919 2247 2730 2509 
Q 2541 2772 2181 2772 
Q 1825 2772 1636 2509 
Q 1447 2247 1447 1747 
Q 1447 1247 1636 984 
Q 1825 722 2181 722 
z
" transform="scale(0.015625)"/>
     </defs>
     <use xlink:href="#DejaVuSans-Bold-39"/>
     <use xlink:href="#DejaVuSans-Bold-44" transform="translate(71.921875 0)"/>
     <use xlink:href="#DejaVuSans-Bold-4f" transform="translate(139.40625 0)"/>
     <use xlink:href="#DejaVuSans-Bold-4c" transform="translate(173.6875 0)"/>
     <use xlink:href="#DejaVuSans-Bold-47" transform="translate(207.96875 0)"/>
     <use xlink:href="#DejaVuSans-Bold-44" transform="translate(279.546875 0)"/>
     <use xlink:href="#DejaVuSans-Bold-57" transform="translate(347.03125 0)"/>
     <use xlink:href="#DejaVuSans-Bold-4c" transform="translate(394.828125 0)"/>
     <use xlink:href="#DejaVuSans-Bold-52" transform="translate(429.109375 0)"/>
     <use xlink:href="#DejaVuSans-Bold-51" transform="translate(497.8125 0)"/>
    </g>
   </g>
   <g id="text_3">
    <!-- SRM -->
    <g transform="translate(195.34875 271.079938) scale(0.08 -0.08)">
     <defs>
      <path id="DejaVuSans-Bold-36" d="M 3834 4519 
L 3834 3531 
Q 3450 3703 3084 3790 
Q 2719 3878 2394 3878 
Q 1963 3878 1756 3759 
Q 1550 3641 1550 3391 
Q 1550 3203 1689 3098 
Q 1828 2994 2194 2919 
L 2706 2816 
Q 3484 2659 3812 2340 
Q 4141 2022 4141 1434 
Q 4141 663 3683 286 
Q 3225 -91 2284 -91 
Q 1841 -91 1394 -6 
Q 947 78 500 244 
L 500 1259 
Q 947 1022 1364 901 
Q 1781 781 2169 781 
Q 2563 781 2772 912 
Q 2981 1044 2981 1288 
Q 2981 1506 2839 1625 
Q 2697 1744 2272 1838 
L 1806 1941 
Q 1106 2091 782 2419 
Q 459 2747 459 3303 
Q 459 4000 909 4375 
Q 1359 4750 2203 4750 
Q 2588 4750 2994 4692 
Q 3400 4634 3834 4519 
z
" transform="scale(0.015625)"/>
      <path id="DejaVuSans-Bold-35" d="M 2297 2597 
Q 2675 2597 2839 2737 
Q 3003 2878 3003 3200 
Q 3003 3519 2839 3656 
Q 2675 3794 2297 3794 
L 1791 3794 
L 1791 2597 
L 2297 2597 
z
M 1791 1766 
L 1791 0 
L 588 0 
L 588 4666 
L 2425 4666 
Q 3347 4666 3776 4356 
Q 4206 4047 4206 3378 
Q 4206 2916 3982 2619 
Q 3759 2322 3309 2181 
Q 3556 2125 3751 1926 
Q 3947 1728 4147 1325 
L 4800 0 
L 3519 0 
L 2950 1159 
Q 2778 1509 2601 1637 
Q 2425 1766 2131 1766 
L 1791 1766 
z
" transform="scale(0.015625)"/>
      <path id="DejaVuSans-Bold-30" d="M 588 4666 
L 2119 4666 
L 3181 2169 
L 4250 4666 
L 5778 4666 
L 5778 0 
L 4641 0 
L 4641 3413 
L 3566 897 
L 2803 897 
L 1728 3413 
L 1728 0 
L 588 0 
L 588 4666 
z
" transform="scale(0.015625)"/>
     </defs>
     <use xlink:href="#DejaVuSans-Bold-36"/>
     <use xlink:href="#DejaVuSans-Bold-35" transform="translate(72.015625 0)"/>
     <use xlink:href="#DejaVuSans-Bold-30" transform="translate(149.015625 0)"/>
    </g>
   </g>
   <g id="text_4">
    <!-- Balance -->
    <g transform="translate(257.289375 271.08025) scale(0.08 -0.08)">
     <defs>
      <path id="DejaVuSans-Bold-25" d="M 2456 2859 
Q 2741 2859 2887 2984 
Q 3034 3109 3034 3353 
Q 3034 3594 2887 3720 
Q 2741 3847 2456 3847 
L 1791 3847 
L 1791 2859 
L 2456 2859 
z
M 2497 819 
Q 2859 819 3042 972 
Q 3225 1125 3225 1434 
Q 3225 1738 3044 1889 
Q 2863 2041 2497 2041 
L 1791 2041 
L 1791 819 
L 2497 819 
z
M 3616 2497 
Q 4003 2384 4215 2081 
Q 4428 1778 4428 1338 
Q 4428 663 3972 331 
Q 3516 0 2584 0 
L 588 0 
L 588 4666 
L 2394 4666 
Q 3366 4666 3802 4372 
Q 4238 4078 4238 3431 
Q 4238 3091 4078 2852 
Q 3919 2613 3616 2497 
z
" transform="scale(0.015625)"/>
      <path id="DejaVuSans-Bold-46" d="M 3366 3391 
L 3366 2478 
Q 3138 2634 2908 2709 
Q 2678 2784 2431 2784 
Q 1963 2784 1702 2511 
Q 1441 2238 1441 1747 
Q 1441 1256 1702 982 
Q 1963 709 2431 709 
Q 2694 709 2930 787 
Q 3166 866 3366 1019 
L 3366 103 
Q 3103 6 2833 -42 
Q 2563 -91 2291 -91 
Q 1344 -91 809 395 
Q 275 881 275 1747 
Q 275 2613 809 3098 
Q 1344 3584 2291 3584 
Q 2566 3584 2833 3536 
Q 3100 3488 3366 3391 
z
" transform="scale(0.015625)"/>
     </defs>
     <use xlink:href="#DejaVuSans-Bold-25"/>
     <use xlink:href="#DejaVuSans-Bold-44" transform="translate(76.21875 0)"/>
     <use xlink:href="#DejaVuSans-Bold-4f" transform="translate(143.703125 0)"/>
     <use xlink:href="#DejaVuSans-Bold-44" transform="translate(177.984375 0)"/>
     <use xlink:href="#DejaVuSans-Bold-51" transform="translate(245.46875 0)"/>
     <use xlink:href="#DejaVuSans-Bold-46" transform="translate(316.65625 0)"/>
     <use xlink:href="#DejaVuSans-Bold-48" transform="translate(375.9375 0)"/>
    </g>
   </g>
   <g id="text_5">
    <!-- Power/MDE -->
    <g transform="translate(319.23375 271.079938) scale(0.08 -0.08)">
     <defs>
      <path id="DejaVuSans-Bold-5a" d="M 225 3500 
L 1313 3500 
L 1900 1088 
L 2491 3500 
L 3425 3500 
L 4013 1113 
L 4603 3500 
L 5691 3500 
L 4769 0 
L 3547 0 
L 2956 2406 
L 2369 0 
L 1147 0 
L 225 3500 
z
" transform="scale(0.015625)"/>
      <path id="DejaVuSans-Bold-55" d="M 3138 2547 
Q 2991 2616 2845 2648 
Q 2700 2681 2553 2681 
Q 2122 2681 1889 2404 
Q 1656 2128 1656 1613 
L 1656 0 
L 538 0 
L 538 3500 
L 1656 3500 
L 1656 2925 
Q 1872 3269 2151 3426 
Q 2431 3584 2822 3584 
Q 2878 3584 2943 3579 
Q 3009 3575 3134 3559 
L 3138 2547 
z
" transform="scale(0.015625)"/>
      <path id="DejaVuSans-Bold-12" d="M 1644 4666 
L 2338 4666 
L 691 -594 
L 0 -594 
L 1644 4666 
z
" transform="scale(0.015625)"/>
      <path id="DejaVuSans-Bold-27" d="M 1791 3756 
L 1791 909 
L 2222 909 
Q 2959 909 3348 1275 
Q 3738 1641 3738 2338 
Q 3738 3031 3350 3393 
Q 2963 3756 2222 3756 
L 1791 3756 
z
M 588 4666 
L 1856 4666 
Q 2919 4666 3439 4514 
Q 3959 4363 4331 4000 
Q 4659 3684 4818 3271 
Q 4978 2859 4978 2338 
Q 4978 1809 4818 1395 
Q 4659 981 4331 666 
Q 3956 303 3431 151 
Q 2906 0 1856 0 
L 588 0 
L 588 4666 
z
" transform="scale(0.015625)"/>
      <path id="DejaVuSans-Bold-28" d="M 588 4666 
L 3834 4666 
L 3834 3756 
L 1791 3756 
L 1791 2888 
L 3713 2888 
L 3713 1978 
L 1791 1978 
L 1791 909 
L 3903 909 
L 3903 0 
L 588 0 
L 588 4666 
z
" transform="scale(0.015625)"/>
     </defs>
     <use xlink:href="#DejaVuSans-Bold-33"/>
     <use xlink:href="#DejaVuSans-Bold-52" transform="translate(73.296875 0)"/>
     <use xlink:href="#DejaVuSans-Bold-5a" transform="translate(142 0)"/>
     <use xlink:href="#DejaVuSans-Bold-48" transform="translate(234.390625 0)"/>
     <use xlink:href="#DejaVuSans-Bold-55" transform="translate(302.21875 0)"/>
     <use xlink:href="#DejaVuSans-Bold-12" transform="translate(351.53125 0)"/>
     <use xlink:href="#DejaVuSans-Bold-30" transform="translate(388.0625 0)"/>
     <use xlink:href="#DejaVuSans-Bold-27" transform="translate(487.578125 0)"/>
     <use xlink:href="#DejaVuSans-Bold-28" transform="translate(570.59375 0)"/>
    </g>
   </g>
   <g id="text_6">
    <!-- Primary -->
    <g transform="translate(396.816875 266.279156) scale(0.08 -0.08)">
     <defs>
      <path id="DejaVuSans-Bold-5c" d="M 78 3500 
L 1197 3500 
L 2138 1125 
L 2938 3500 
L 4056 3500 
L 2584 -331 
Q 2363 -916 2067 -1148 
Q 1772 -1381 1288 -1381 
L 641 -1381 
L 641 -647 
L 991 -647 
Q 1275 -647 1404 -556 
Q 1534 -466 1606 -231 
L 1638 -134 
L 78 3500 
z
" transform="scale(0.015625)"/>
     </defs>
     <use xlink:href="#DejaVuSans-Bold-33"/>
     <use xlink:href="#DejaVuSans-Bold-55" transform="translate(73.296875 0)"/>
     <use xlink:href="#DejaVuSans-Bold-4c" transform="translate(122.609375 0)"/>
     <use xlink:href="#DejaVuSans-Bold-50" transform="translate(156.890625 0)"/>
     <use xlink:href="#DejaVuSans-Bold-44" transform="translate(261.09375 0)"/>
     <use xlink:href="#DejaVuSans-Bold-55" transform="translate(328.578125 0)"/>
     <use xlink:href="#DejaVuSans-Bold-5c" transform="translate(377.890625 0)"/>
    </g>
    <!-- Secondary -->
    <g transform="translate(390.836875 275.881344) scale(0.08 -0.08)">
     <use xlink:href="#DejaVuSans-Bold-36"/>
     <use xlink:href="#DejaVuSans-Bold-48" transform="translate(72.015625 0)"/>
     <use xlink:href="#DejaVuSans-Bold-46" transform="translate(139.84375 0)"/>
     <use xlink:href="#DejaVuSans-Bold-52" transform="translate(199.125 0)"/>
     <use xlink:href="#DejaVuSans-Bold-51" transform="translate(267.828125 0)"/>
     <use xlink:href="#DejaVuSans-Bold-47" transform="translate(339.015625 0)"/>
     <use xlink:href="#DejaVuSans-Bold-44" transform="translate(410.59375 0)"/>
     <use xlink:href="#DejaVuSans-Bold-55" transform="translate(478.078125 0)"/>
     <use xlink:href="#DejaVuSans-Bold-5c" transform="translate(527.390625 0)"/>
    </g>
   </g>
   <g id="text_7">
    <!-- Guardrails -->
    <g transform="translate(460.829375 271.08025) scale(0.08 -0.08)">
     <defs>
      <path id="DejaVuSans-Bold-2a" d="M 4781 347 
Q 4331 128 3847 18 
Q 3363 -91 2847 -91 
Q 1681 -91 1000 561 
Q 319 1213 319 2328 
Q 319 3456 1012 4103 
Q 1706 4750 2913 4750 
Q 3378 4750 3804 4662 
Q 4231 4575 4609 4403 
L 4609 3438 
Q 4219 3659 3833 3768 
Q 3447 3878 3059 3878 
Q 2341 3878 1952 3476 
Q 1563 3075 1563 2328 
Q 1563 1588 1938 1184 
Q 2313 781 3003 781 
Q 3191 781 3352 804 
Q 3513 828 3641 878 
L 3641 1784 
L 2906 1784 
L 2906 2591 
L 4781 2591 
L 4781 347 
z
" transform="scale(0.015625)"/>
     </defs>
     <use xlink:href="#DejaVuSans-Bold-2a"/>
     <use xlink:href="#DejaVuSans-Bold-58" transform="translate(82.078125 0)"/>
     <use xlink:href="#DejaVuSans-Bold-44" transform="translate(153.265625 0)"/>
     <use xlink:href="#DejaVuSans-Bold-55" transform="translate(220.75 0)"/>
     <use xlink:href="#DejaVuSans-Bold-47" transform="translate(270.0625 0)"/>
     <use xlink:href="#DejaVuSans-Bold-55" transform="translate(341.640625 0)"/>
     <use xlink:href="#DejaVuSans-Bold-44" transform="translate(390.953125 0)"/>
     <use xlink:href="#DejaVuSans-Bold-4c" transform="translate(458.4375 0)"/>
     <use xlink:href="#DejaVuSans-Bold-4f" transform="translate(492.71875 0)"/>
     <use xlink:href="#DejaVuSans-Bold-56" transform="translate(527 0)"/>
    </g>
   </g>
   <g id="text_8">
    <!-- Bootstrap -->
    <g transform="translate(531.755625 271.079938) scale(0.08 -0.08)">
     <use xlink:href="#DejaVuSans-Bold-25"/>
     <use xlink:href="#DejaVuSans-Bold-52" transform="translate(76.21875 0)"/>
     <use xlink:href="#DejaVuSans-Bold-52" transform="translate(144.921875 0)"/>
     <use xlink:href="#DejaVuSans-Bold-57" transform="translate(213.625 0)"/>
     <use xlink:href="#DejaVuSans-Bold-56" transform="translate(261.421875 0)"/>
     <use xlink:href="#DejaVuSans-Bold-57" transform="translate(320.9375 0)"/>
     <use xlink:href="#DejaVuSans-Bold-55" transform="translate(368.734375 0)"/>
     <use xlink:href="#DejaVuSans-Bold-44" transform="translate(418.046875 0)"/>
     <use xlink:href="#DejaVuSans-Bold-53" transform="translate(485.53125 0)"/>
    </g>
   </g>
   <g id="text_9">
    <!-- Multiplicity -->
    <g transform="translate(598.44 271.08025) scale(0.08 -0.08)">
     <use xlink:href="#DejaVuSans-Bold-30"/>
     <use xlink:href="#DejaVuSans-Bold-58" transform="translate(99.515625 0)"/>
     <use xlink:href="#DejaVuSans-Bold-4f" transform="translate(170.703125 0)"/>
     <use xlink:href="#DejaVuSans-Bold-57" transform="translate(204.984375 0)"/>
     <use xlink:href="#DejaVuSans-Bold-4c" transform="translate(252.78125 0)"/>
     <use xlink:href="#DejaVuSans-Bold-53" transform="translate(287.0625 0)"/>
     <use xlink:href="#DejaVuSans-Bold-4f" transform="translate(358.640625 0)"/>
     <use xlink:href="#DejaVuSans-Bold-4c" transform="translate(392.921875 0)"/>
     <use xlink:href="#DejaVuSans-Bold-46" transform="translate(427.203125 0)"/>
     <use xlink:href="#DejaVuSans-Bold-4c" transform="translate(486.484375 0)"/>
     <use xlink:href="#DejaVuSans-Bold-57" transform="translate(520.765625 0)"/>
     <use xlink:href="#DejaVuSans-Bold-5c" transform="translate(568.5625 0)"/>
    </g>
   </g>
   <g id="text_10">
    <!-- Sensitivity -->
    <g transform="translate(669.565625 271.08025) scale(0.08 -0.08)">
     <defs>
      <path id="DejaVuSans-Bold-59" d="M 97 3500 
L 1216 3500 
L 2088 1081 
L 2956 3500 
L 4078 3500 
L 2700 0 
L 1472 0 
L 97 3500 
z
" transform="scale(0.015625)"/>
     </defs>
     <use xlink:href="#DejaVuSans-Bold-36"/>
     <use xlink:href="#DejaVuSans-Bold-48" transform="translate(72.015625 0)"/>
     <use xlink:href="#DejaVuSans-Bold-51" transform="translate(139.84375 0)"/>
     <use xlink:href="#DejaVuSans-Bold-56" transform="translate(211.03125 0)"/>
     <use xlink:href="#DejaVuSans-Bold-4c" transform="translate(270.546875 0)"/>
     <use xlink:href="#DejaVuSans-Bold-57" transform="translate(304.828125 0)"/>
     <use xlink:href="#DejaVuSans-Bold-4c" transform="translate(352.625 0)"/>
     <use xlink:href="#DejaVuSans-Bold-59" transform="translate(386.90625 0)"/>
     <use xlink:href="#DejaVuSans-Bold-4c" transform="translate(452.09375 0)"/>
     <use xlink:href="#DejaVuSans-Bold-57" transform="translate(486.375 0)"/>
     <use xlink:href="#DejaVuSans-Bold-5c" transform="translate(534.171875 0)"/>
    </g>
   </g>
   <g id="text_11">
    <!-- Decision -->
    <g transform="translate(744.16625 271.08025) scale(0.08 -0.08)">
     <use xlink:href="#DejaVuSans-Bold-27"/>
     <use xlink:href="#DejaVuSans-Bold-48" transform="translate(83.015625 0)"/>
     <use xlink:href="#DejaVuSans-Bold-46" transform="translate(150.84375 0)"/>
     <use xlink:href="#DejaVuSans-Bold-4c" transform="translate(210.125 0)"/>
     <use xlink:href="#DejaVuSans-Bold-56" transform="translate(244.40625 0)"/>
     <use xlink:href="#DejaVuSans-Bold-4c" transform="translate(303.921875 0)"/>
     <use xlink:href="#DejaVuSans-Bold-52" transform="translate(338.203125 0)"/>
     <use xlink:href="#DejaVuSans-Bold-51" transform="translate(406.90625 0)"/>
    </g>
   </g>
   <g id="text_12">
    <!-- Acceptance -->
    <g transform="translate(807.0825 266.278844) scale(0.08 -0.08)">
     <use xlink:href="#DejaVuSans-Bold-24"/>
     <use xlink:href="#DejaVuSans-Bold-46" transform="translate(77.390625 0)"/>
     <use xlink:href="#DejaVuSans-Bold-46" transform="translate(136.671875 0)"/>
     <use xlink:href="#DejaVuSans-Bold-48" transform="translate(195.953125 0)"/>
     <use xlink:href="#DejaVuSans-Bold-53" transform="translate(263.78125 0)"/>
     <use xlink:href="#DejaVuSans-Bold-57" transform="translate(335.359375 0)"/>
     <use xlink:href="#DejaVuSans-Bold-44" transform="translate(383.15625 0)"/>
     <use xlink:href="#DejaVuSans-Bold-51" transform="translate(450.640625 0)"/>
     <use xlink:href="#DejaVuSans-Bold-46" transform="translate(521.828125 0)"/>
     <use xlink:href="#DejaVuSans-Bold-48" transform="translate(581.109375 0)"/>
    </g>
    <!-- Verification -->
    <g transform="translate(807.191875 275.881031) scale(0.08 -0.08)">
     <defs>
      <path id="DejaVuSans-Bold-13ab" d="M 3078 4863 
L 4206 4863 
L 4206 3950 
L 3078 3950 
L 3078 4863 
z
M 2847 4863 
L 2847 4128 
L 2228 4128 
Q 1994 4128 1903 4042 
Q 1813 3956 1813 3744 
L 1813 3500 
L 4206 3500 
L 4206 0 
L 3078 0 
L 3078 2700 
L 1813 2700 
L 1813 0 
L 684 0 
L 684 2700 
L 134 2700 
L 134 3500 
L 684 3500 
L 684 3744 
Q 684 4316 1003 4589 
Q 1322 4863 1991 4863 
L 2847 4863 
z
" transform="scale(0.015625)"/>
     </defs>
     <use xlink:href="#DejaVuSans-Bold-39"/>
     <use xlink:href="#DejaVuSans-Bold-48" transform="translate(71.921875 0)"/>
     <use xlink:href="#DejaVuSans-Bold-55" transform="translate(139.75 0)"/>
     <use xlink:href="#DejaVuSans-Bold-4c" transform="translate(189.0625 0)"/>
     <use xlink:href="#DejaVuSans-Bold-13ab" transform="translate(223.34375 0)"/>
     <use xlink:href="#DejaVuSans-Bold-46" transform="translate(297.46875 0)"/>
     <use xlink:href="#DejaVuSans-Bold-44" transform="translate(356.75 0)"/>
     <use xlink:href="#DejaVuSans-Bold-57" transform="translate(424.234375 0)"/>
     <use xlink:href="#DejaVuSans-Bold-4c" transform="translate(472.03125 0)"/>
     <use xlink:href="#DejaVuSans-Bold-52" transform="translate(506.3125 0)"/>
     <use xlink:href="#DejaVuSans-Bold-51" transform="translate(575.015625 0)"/>
    </g>
   </g>
   <g id="text_13">
    <!-- FxFill Analytics - Experiment Flow -->
    <g transform="translate(319.785156 17.837812) scale(0.14 -0.14)">
     <defs>
      <path id="DejaVuSans-Bold-29" d="M 588 4666 
L 3834 4666 
L 3834 3756 
L 1791 3756 
L 1791 2888 
L 3713 2888 
L 3713 1978 
L 1791 1978 
L 1791 0 
L 588 0 
L 588 4666 
z
" transform="scale(0.015625)"/>
      <path id="DejaVuSans-Bold-5b" d="M 1422 1791 
L 159 3500 
L 1344 3500 
L 2059 2463 
L 2784 3500 
L 3969 3500 
L 2706 1797 
L 4031 0 
L 2847 0 
L 2059 1106 
L 1281 0 
L 97 0 
L 1422 1791 
z
" transform="scale(0.015625)"/>
      <path id="DejaVuSans-Bold-3" transform="scale(0.015625)"/>
      <path id="DejaVuSans-Bold-10" d="M 347 2297 
L 2309 2297 
L 2309 1388 
L 347 1388 
L 347 2297 
z
" transform="scale(0.015625)"/>
     </defs>
     <use xlink:href="#DejaVuSans-Bold-29"/>
     <use xlink:href="#DejaVuSans-Bold-5b" transform="translate(68.3125 0)"/>
     <use xlink:href="#DejaVuSans-Bold-29" transform="translate(132.8125 0)"/>
     <use xlink:href="#DejaVuSans-Bold-4c" transform="translate(201.125 0)"/>
     <use xlink:href="#DejaVuSans-Bold-4f" transform="translate(235.40625 0)"/>
     <use xlink:href="#DejaVuSans-Bold-4f" transform="translate(269.6875 0)"/>
     <use xlink:href="#DejaVuSans-Bold-3" transform="translate(303.96875 0)"/>
     <use xlink:href="#DejaVuSans-Bold-24" transform="translate(338.78125 0)"/>
     <use xlink:href="#DejaVuSans-Bold-51" transform="translate(416.171875 0)"/>
     <use xlink:href="#DejaVuSans-Bold-44" transform="translate(487.359375 0)"/>
     <use xlink:href="#DejaVuSans-Bold-4f" transform="translate(554.84375 0)"/>
     <use xlink:href="#DejaVuSans-Bold-5c" transform="translate(589.125 0)"/>
     <use xlink:href="#DejaVuSans-Bold-57" transform="translate(654.3125 0)"/>
     <use xlink:href="#DejaVuSans-Bold-4c" transform="translate(702.109375 0)"/>
     <use xlink:href="#DejaVuSans-Bold-46" transform="translate(736.390625 0)"/>
     <use xlink:href="#DejaVuSans-Bold-56" transform="translate(795.671875 0)"/>
     <use xlink:href="#DejaVuSans-Bold-3" transform="translate(855.1875 0)"/>
     <use xlink:href="#DejaVuSans-Bold-10" transform="translate(890 0)"/>
     <use xlink:href="#DejaVuSans-Bold-3" transform="translate(931.5 0)"/>
     <use xlink:href="#DejaVuSans-Bold-28" transform="translate(966.3125 0)"/>
     <use xlink:href="#DejaVuSans-Bold-5b" transform="translate(1034.625 0)"/>
     <use xlink:href="#DejaVuSans-Bold-53" transform="translate(1099.125 0)"/>
     <use xlink:href="#DejaVuSans-Bold-48" transform="translate(1170.703125 0)"/>
     <use xlink:href="#DejaVuSans-Bold-55" transform="translate(1238.53125 0)"/>
     <use xlink:href="#DejaVuSans-Bold-4c" transform="translate(1287.84375 0)"/>
     <use xlink:href="#DejaVuSans-Bold-50" transform="translate(1322.125 0)"/>
     <use xlink:href="#DejaVuSans-Bold-48" transform="translate(1426.328125 0)"/>
     <use xlink:href="#DejaVuSans-Bold-51" transform="translate(1494.15625 0)"/>
     <use xlink:href="#DejaVuSans-Bold-57" transform="translate(1565.34375 0)"/>
     <use xlink:href="#DejaVuSans-Bold-3" transform="translate(1613.140625 0)"/>
     <use xlink:href="#DejaVuSans-Bold-29" transform="translate(1647.953125 0)"/>
     <use xlink:href="#DejaVuSans-Bold-4f" transform="translate(1716.265625 0)"/>
     <use xlink:href="#DejaVuSans-Bold-52" transform="translate(1750.546875 0)"/>
     <use xlink:href="#DejaVuSans-Bold-5a" transform="translate(1819.25 0)"/>
    </g>
   </g>
  </g>
 </g>
 <defs>
  <clipPath id="pda1b774819">
   <rect x="7.2" y="27.837812" width="892.8" height="498.96"/>
  </clipPath>
 </defs>
</svg>
